solid inlet1
facet normal -1.000000 0.000000 0.000000
outer loop
vertex -3.000000 -2.000000 0.000000
vertex -3.000000 2.000000 0.000000
vertex -3.000000 2.000000 -3.000000
endloop
endfacet
facet normal -1.000000 0.000000 0.000000
outer loop
vertex -3.000000 -2.000000 0.000000
vertex -3.000000 2.000000 -3.000000
vertex -3.000000 -2.000000 -3.000000
endloop
endfacet
endsolid inlet1
solid inlet2
facet normal 0.000000 -1.000000 0.000000
outer loop
vertex 3.000000 -2.000000 0.000000
vertex -3.000000 -2.000000 0.000000
vertex -3.000000 -2.000000 -3.000000
endloop
endfacet
facet normal 0.000000 -1.000000 0.000000
outer loop
vertex 3.000000 -2.000000 0.000000
vertex -3.000000 -2.000000 -3.000000
vertex 3.000000 -2.000000 -3.000000
endloop
endfacet
facet normal 0.000000 1.000000 0.000000
outer loop
vertex -3.000000 2.000000 0.000000
vertex 3.000000 2.000000 0.000000
vertex 3.000000 2.000000 -3.000000
endloop
endfacet
facet normal 0.000000 1.000000 0.000000
outer loop
vertex -3.000000 2.000000 0.000000
vertex 3.000000 2.000000 -3.000000
vertex -3.000000 2.000000 -3.000000
endloop
endfacet
facet normal 0.000000 0.000000 -1.000000
outer loop
vertex -3.000000 2.000000 -3.000000
vertex 3.000000 2.000000 -3.000000
vertex -3.000000 -2.000000 -3.000000
endloop
endfacet
facet normal 0.000000 0.000000 -1.000000
outer loop
vertex -3.000000 -2.000000 -3.000000
vertex 3.000000 2.000000 -3.000000
vertex 3.000000 -2.000000 -3.000000
endloop
endfacet
endsolid inlet2
solid outlet1
facet normal 1.000000 0.000000 0.000000
outer loop
vertex 3.000000 2.000000 0.000000
vertex 3.000000 -2.000000 0.000000
vertex 3.000000 -2.000000 -3.000000
endloop
endfacet
facet normal 1.000000 0.000000 0.000000
outer loop
vertex 3.000000 2.000000 0.000000
vertex 3.000000 -2.000000 -3.000000
vertex 3.000000 2.000000 -3.000000
endloop
endfacet
endsolid outlet1
solid symmetry1
facet normal 0.000000 0.000000 1.000000
outer loop
vertex 3.000000 2.000000 0.000000
vertex -3.000000 2.000000 0.000000
vertex -3.000000 -2.000000 0.000000
endloop
endfacet
facet normal 0.000000 0.000000 1.000000
outer loop
vertex 3.000000 2.000000 0.000000
vertex -3.000000 -2.000000 0.000000
vertex 3.000000 -2.000000 0.000000
endloop
endfacet
endsolid symmetry1
solid wall1
facet normal 0.036625 -0.999329 0.000000
outer loop
vertex 0.105000 -0.005476 -0.750000
vertex 0.110000 -0.005293 -0.750000
vertex 0.110000 -0.005293 0.750000
endloop
endfacet
facet normal 0.036625 -0.999329 0.000000
outer loop
vertex 0.105000 -0.005476 -0.750000
vertex 0.110000 -0.005293 0.750000
vertex 0.105000 -0.005476 0.750000
endloop
endfacet
facet normal 0.036476 -0.999335 0.000000
outer loop
vertex 0.100000 -0.005658 -0.750000
vertex 0.105000 -0.005476 -0.750000
vertex 0.105000 -0.005476 0.750000
endloop
endfacet
facet normal 0.036476 -0.999335 0.000000
outer loop
vertex 0.100000 -0.005658 -0.750000
vertex 0.105000 -0.005476 0.750000
vertex 0.100000 -0.005658 0.750000
endloop
endfacet
facet normal 0.036326 -0.999340 0.000000
outer loop
vertex 0.095000 -0.005840 -0.750000
vertex 0.100000 -0.005658 -0.750000
vertex 0.100000 -0.005658 0.750000
endloop
endfacet
facet normal 0.036326 -0.999340 0.000000
outer loop
vertex 0.095000 -0.005840 -0.750000
vertex 0.100000 -0.005658 0.750000
vertex 0.095000 -0.005840 0.750000
endloop
endfacet
facet normal 0.036276 -0.999342 0.000000
outer loop
vertex 0.090000 -0.006022 -0.750000
vertex 0.095000 -0.005840 -0.750000
vertex 0.095000 -0.005840 0.750000
endloop
endfacet
facet normal 0.036276 -0.999342 0.000000
outer loop
vertex 0.090000 -0.006022 -0.750000
vertex 0.095000 -0.005840 0.750000
vertex 0.090000 -0.006022 0.750000
endloop
endfacet
facet normal 0.036526 -0.999333 0.000000
outer loop
vertex 0.085000 -0.006204 -0.750000
vertex 0.090000 -0.006022 -0.750000
vertex 0.090000 -0.006022 0.750000
endloop
endfacet
facet normal 0.036525 -0.999333 0.000000
outer loop
vertex 0.085000 -0.006204 -0.750000
vertex 0.090000 -0.006022 0.750000
vertex 0.085000 -0.006204 0.750000
endloop
endfacet
facet normal 0.036875 -0.999320 0.000000
outer loop
vertex 0.080000 -0.006389 -0.750000
vertex 0.085000 -0.006204 -0.750000
vertex 0.085000 -0.006204 0.750000
endloop
endfacet
facet normal 0.036875 -0.999320 0.000000
outer loop
vertex 0.080000 -0.006389 -0.750000
vertex 0.085000 -0.006204 0.750000
vertex 0.080000 -0.006389 0.750000
endloop
endfacet
facet normal 0.037573 -0.999294 0.000000
outer loop
vertex 0.075000 -0.006577 -0.750000
vertex 0.080000 -0.006389 -0.750000
vertex 0.080000 -0.006389 0.750000
endloop
endfacet
facet normal 0.037573 -0.999294 0.000000
outer loop
vertex 0.075000 -0.006577 -0.750000
vertex 0.080000 -0.006389 0.750000
vertex 0.075000 -0.006577 0.750000
endloop
endfacet
facet normal 0.038072 -0.999275 0.000000
outer loop
vertex 0.070000 -0.006768 -0.750000
vertex 0.075000 -0.006577 -0.750000
vertex 0.075000 -0.006577 0.750000
endloop
endfacet
facet normal 0.038072 -0.999275 0.000000
outer loop
vertex 0.070000 -0.006768 -0.750000
vertex 0.075000 -0.006577 0.750000
vertex 0.070000 -0.006768 0.750000
endloop
endfacet
facet normal 0.037274 -0.999305 0.000000
outer loop
vertex 0.065000 -0.006954 -0.750000
vertex 0.070000 -0.006768 -0.750000
vertex 0.070000 -0.006768 0.750000
endloop
endfacet
facet normal 0.037274 -0.999305 0.000000
outer loop
vertex 0.065000 -0.006954 -0.750000
vertex 0.070000 -0.006768 0.750000
vertex 0.065000 -0.006954 0.750000
endloop
endfacet
facet normal 0.035078 -0.999385 0.000000
outer loop
vertex 0.060000 -0.007130 -0.750000
vertex 0.065000 -0.006954 -0.750000
vertex 0.065000 -0.006954 0.750000
endloop
endfacet
facet normal 0.035078 -0.999385 0.000000
outer loop
vertex 0.060000 -0.007130 -0.750000
vertex 0.065000 -0.006954 0.750000
vertex 0.060000 -0.007130 0.750000
endloop
endfacet
facet normal 0.031335 -0.999509 0.000000
outer loop
vertex 0.055000 -0.007286 -0.750000
vertex 0.060000 -0.007130 -0.750000
vertex 0.060000 -0.007130 0.750000
endloop
endfacet
facet normal 0.031335 -0.999509 0.000000
outer loop
vertex 0.055000 -0.007286 -0.750000
vertex 0.060000 -0.007130 0.750000
vertex 0.055000 -0.007286 0.750000
endloop
endfacet
facet normal 0.026041 -0.999661 0.000000
outer loop
vertex 0.050000 -0.007416 -0.750000
vertex 0.055000 -0.007286 -0.750000
vertex 0.055000 -0.007286 0.750000
endloop
endfacet
facet normal 0.026041 -0.999661 0.000000
outer loop
vertex 0.050000 -0.007416 -0.750000
vertex 0.055000 -0.007286 0.750000
vertex 0.050000 -0.007416 0.750000
endloop
endfacet
facet normal 0.019147 -0.999817 0.000000
outer loop
vertex 0.045000 -0.007512 -0.750000
vertex 0.050000 -0.007416 -0.750000
vertex 0.050000 -0.007416 0.750000
endloop
endfacet
facet normal 0.019147 -0.999817 0.000000
outer loop
vertex 0.045000 -0.007512 -0.750000
vertex 0.050000 -0.007416 0.750000
vertex 0.045000 -0.007512 0.750000
endloop
endfacet
facet normal 0.010299 -0.999947 0.000000
outer loop
vertex 0.040000 -0.007564 -0.750000
vertex 0.045000 -0.007512 -0.750000
vertex 0.045000 -0.007512 0.750000
endloop
endfacet
facet normal 0.010299 -0.999947 0.000000
outer loop
vertex 0.040000 -0.007564 -0.750000
vertex 0.045000 -0.007512 0.750000
vertex 0.040000 -0.007564 0.750000
endloop
endfacet
facet normal -0.000750 -1.000000 0.000000
outer loop
vertex 0.035000 -0.007560 -0.750000
vertex 0.040000 -0.007564 -0.750000
vertex 0.040000 -0.007564 0.750000
endloop
endfacet
facet normal -0.000750 -1.000000 0.000000
outer loop
vertex 0.035000 -0.007560 -0.750000
vertex 0.040000 -0.007564 0.750000
vertex 0.035000 -0.007560 0.750000
endloop
endfacet
facet normal -0.013849 -0.999904 0.000000
outer loop
vertex 0.030000 -0.007491 -0.750000
vertex 0.035000 -0.007560 -0.750000
vertex 0.035000 -0.007560 0.750000
endloop
endfacet
facet normal -0.013849 -0.999904 0.000000
outer loop
vertex 0.030000 -0.007491 -0.750000
vertex 0.035000 -0.007560 0.750000
vertex 0.030000 -0.007491 0.750000
endloop
endfacet
facet normal -0.029188 -0.999574 0.000000
outer loop
vertex 0.025000 -0.007345 -0.750000
vertex 0.030000 -0.007491 -0.750000
vertex 0.030000 -0.007491 0.750000
endloop
endfacet
facet normal -0.029188 -0.999574 0.000000
outer loop
vertex 0.025000 -0.007345 -0.750000
vertex 0.030000 -0.007491 0.750000
vertex 0.025000 -0.007345 0.750000
endloop
endfacet
facet normal -0.045951 -0.998944 0.000000
outer loop
vertex 0.020000 -0.007115 -0.750000
vertex 0.025000 -0.007345 -0.750000
vertex 0.025000 -0.007345 0.750000
endloop
endfacet
facet normal -0.045951 -0.998944 0.000000
outer loop
vertex 0.020000 -0.007115 -0.750000
vertex 0.025000 -0.007345 0.750000
vertex 0.020000 -0.007115 0.750000
endloop
endfacet
facet normal -0.066403 -0.997793 0.000000
outer loop
vertex 0.015000 -0.006782 -0.750000
vertex 0.020000 -0.007115 -0.750000
vertex 0.020000 -0.007115 0.750000
endloop
endfacet
facet normal -0.066403 -0.997793 0.000000
outer loop
vertex 0.015000 -0.006782 -0.750000
vertex 0.020000 -0.007115 0.750000
vertex 0.015000 -0.006782 0.750000
endloop
endfacet
facet normal -0.107670 -0.994187 0.000000
outer loop
vertex 0.012500 -0.006511 -0.750000
vertex 0.015000 -0.006782 -0.750000
vertex 0.015000 -0.006782 0.750000
endloop
endfacet
facet normal -0.107670 -0.994187 0.000000
outer loop
vertex 0.012500 -0.006511 -0.750000
vertex 0.015000 -0.006782 0.750000
vertex 0.012500 -0.006511 0.750000
endloop
endfacet
facet normal -0.150660 -0.988586 0.000000
outer loop
vertex 0.010000 -0.006130 -0.750000
vertex 0.012500 -0.006511 -0.750000
vertex 0.012500 -0.006511 0.750000
endloop
endfacet
facet normal -0.150660 -0.988586 0.000000
outer loop
vertex 0.010000 -0.006130 -0.750000
vertex 0.012500 -0.006511 0.750000
vertex 0.010000 -0.006130 0.750000
endloop
endfacet
facet normal -0.188082 -0.982153 0.000000
outer loop
vertex 0.007500 -0.005652 -0.750000
vertex 0.010000 -0.006130 -0.750000
vertex 0.010000 -0.006130 0.750000
endloop
endfacet
facet normal -0.188082 -0.982153 0.000000
outer loop
vertex 0.007500 -0.005652 -0.750000
vertex 0.010000 -0.006130 0.750000
vertex 0.007500 -0.005652 0.750000
endloop
endfacet
facet normal -0.227291 -0.973827 0.000000
outer loop
vertex 0.005000 -0.005068 -0.750000
vertex 0.007500 -0.005652 -0.750000
vertex 0.007500 -0.005652 0.750000
endloop
endfacet
facet normal -0.227291 -0.973827 0.000000
outer loop
vertex 0.005000 -0.005068 -0.750000
vertex 0.007500 -0.005652 0.750000
vertex 0.005000 -0.005068 0.750000
endloop
endfacet
facet normal -0.381232 -0.924479 0.000000
outer loop
vertex 0.003000 -0.004243 -0.750000
vertex 0.005000 -0.005068 -0.750000
vertex 0.005000 -0.005068 0.750000
endloop
endfacet
facet normal -0.381232 -0.924479 0.000000
outer loop
vertex 0.003000 -0.004243 -0.750000
vertex 0.005000 -0.005068 0.750000
vertex 0.003000 -0.004243 0.750000
endloop
endfacet
facet normal -0.557618 -0.830098 0.000000
outer loop
vertex 0.002000 -0.003572 -0.750000
vertex 0.003000 -0.004243 -0.750000
vertex 0.003000 -0.004243 0.750000
endloop
endfacet
facet normal -0.557618 -0.830098 0.000000
outer loop
vertex 0.002000 -0.003572 -0.750000
vertex 0.003000 -0.004243 0.750000
vertex 0.002000 -0.003572 0.750000
endloop
endfacet
facet normal -0.686164 -0.727447 0.000000
outer loop
vertex 0.001000 -0.002628 -0.750000
vertex 0.002000 -0.003572 -0.750000
vertex 0.002000 -0.003572 0.750000
endloop
endfacet
facet normal -0.686164 -0.727447 0.000000
outer loop
vertex 0.001000 -0.002628 -0.750000
vertex 0.002000 -0.003572 0.750000
vertex 0.001000 -0.002628 0.750000
endloop
endfacet
facet normal -0.803768 -0.594943 0.000000
outer loop
vertex 0.000500 -0.001953 -0.750000
vertex 0.001000 -0.002628 -0.750000
vertex 0.001000 -0.002628 0.750000
endloop
endfacet
facet normal -0.803768 -0.594943 0.000000
outer loop
vertex 0.000500 -0.001953 -0.750000
vertex 0.001000 -0.002628 0.750000
vertex 0.000500 -0.001953 0.750000
endloop
endfacet
facet normal -0.881725 -0.471763 0.000000
outer loop
vertex 0.000250 -0.001486 -0.750000
vertex 0.000500 -0.001953 -0.750000
vertex 0.000500 -0.001953 0.750000
endloop
endfacet
facet normal -0.881725 -0.471763 0.000000
outer loop
vertex 0.000250 -0.001486 -0.750000
vertex 0.000500 -0.001953 0.750000
vertex 0.000250 -0.001486 0.750000
endloop
endfacet
facet normal -0.930680 -0.365834 0.000000
outer loop
vertex 0.000125 -0.001168 -0.750000
vertex 0.000250 -0.001486 -0.750000
vertex 0.000250 -0.001486 0.750000
endloop
endfacet
facet normal -0.930680 -0.365833 0.000000
outer loop
vertex 0.000125 -0.001168 -0.750000
vertex 0.000250 -0.001486 0.750000
vertex 0.000125 -0.001168 0.750000
endloop
endfacet
facet normal -0.994317 -0.106458 0.000000
outer loop
vertex 0.000000 0.000000 -0.750000
vertex 0.000125 -0.001168 -0.750000
vertex 0.000125 -0.001168 0.750000
endloop
endfacet
facet normal -0.994317 -0.106458 0.000000
outer loop
vertex 0.000000 0.000000 -0.750000
vertex 0.000125 -0.001168 0.750000
vertex 0.000000 0.000000 0.750000
endloop
endfacet
facet normal -0.977906 0.209044 0.000000
outer loop
vertex 0.000125 0.000585 -0.750000
vertex 0.000000 0.000000 -0.750000
vertex 0.000000 0.000000 0.750000
endloop
endfacet
facet normal -0.977906 0.209044 0.000000
outer loop
vertex 0.000125 0.000585 -0.750000
vertex 0.000000 0.000000 0.750000
vertex 0.000125 0.000585 0.750000
endloop
endfacet
facet normal -0.940818 0.338911 0.000000
outer loop
vertex 0.000250 0.000932 -0.750000
vertex 0.000125 0.000585 -0.750000
vertex 0.000125 0.000585 0.750000
endloop
endfacet
facet normal -0.940818 0.338912 0.000000
outer loop
vertex 0.000250 0.000932 -0.750000
vertex 0.000125 0.000585 0.750000
vertex 0.000250 0.000932 0.750000
endloop
endfacet
facet normal -0.900926 0.433972 0.000000
outer loop
vertex 0.000500 0.001451 -0.750000
vertex 0.000250 0.000932 -0.750000
vertex 0.000250 0.000932 0.750000
endloop
endfacet
facet normal -0.900926 0.433972 0.000000
outer loop
vertex 0.000500 0.001451 -0.750000
vertex 0.000250 0.000932 0.750000
vertex 0.000500 0.001451 0.750000
endloop
endfacet
facet normal -0.841958 0.539544 0.000000
outer loop
vertex 0.001000 0.002231 -0.750000
vertex 0.000500 0.001451 -0.750000
vertex 0.000500 0.001451 0.750000
endloop
endfacet
facet normal -0.841958 0.539544 0.000000
outer loop
vertex 0.001000 0.002231 -0.750000
vertex 0.000500 0.001451 0.750000
vertex 0.001000 0.002231 0.750000
endloop
endfacet
facet normal -0.768941 0.639319 0.000000
outer loop
vertex 0.002000 0.003434 -0.750000
vertex 0.001000 0.002231 -0.750000
vertex 0.001000 0.002231 0.750000
endloop
endfacet
facet normal -0.768941 0.639319 0.000000
outer loop
vertex 0.002000 0.003434 -0.750000
vertex 0.001000 0.002231 0.750000
vertex 0.002000 0.003434 0.750000
endloop
endfacet
facet normal -0.717732 0.696320 0.000000
outer loop
vertex 0.003000 0.004465 -0.750000
vertex 0.002000 0.003434 -0.750000
vertex 0.002000 0.003434 0.750000
endloop
endfacet
facet normal -0.717732 0.696320 0.000000
outer loop
vertex 0.003000 0.004465 -0.750000
vertex 0.002000 0.003434 0.750000
vertex 0.003000 0.004465 0.750000
endloop
endfacet
facet normal -0.684717 0.728809 0.000000
outer loop
vertex 0.005000 0.006344 -0.750000
vertex 0.003000 0.004465 -0.750000
vertex 0.003000 0.004465 0.750000
endloop
endfacet
facet normal -0.684717 0.728810 0.000000
outer loop
vertex 0.005000 0.006344 -0.750000
vertex 0.003000 0.004465 0.750000
vertex 0.005000 0.006344 0.750000
endloop
endfacet
facet normal -0.607497 0.794322 0.000000
outer loop
vertex 0.007500 0.008256 -0.750000
vertex 0.005000 0.006344 -0.750000
vertex 0.005000 0.006344 0.750000
endloop
endfacet
facet normal -0.607497 0.794322 0.000000
outer loop
vertex 0.007500 0.008256 -0.750000
vertex 0.005000 0.006344 0.750000
vertex 0.007500 0.008256 0.750000
endloop
endfacet
facet normal -0.521132 0.853476 0.000000
outer loop
vertex 0.010000 0.009782 -0.750000
vertex 0.007500 0.008256 -0.750000
vertex 0.007500 0.008256 0.750000
endloop
endfacet
facet normal -0.521133 0.853476 0.000000
outer loop
vertex 0.010000 0.009782 -0.750000
vertex 0.007500 0.008256 0.750000
vertex 0.010000 0.009782 0.750000
endloop
endfacet
facet normal -0.457639 0.889138 0.000000
outer loop
vertex 0.012500 0.011069 -0.750000
vertex 0.010000 0.009782 -0.750000
vertex 0.010000 0.009782 0.750000
endloop
endfacet
facet normal -0.457639 0.889138 0.000000
outer loop
vertex 0.012500 0.011069 -0.750000
vertex 0.010000 0.009782 0.750000
vertex 0.012500 0.011069 0.750000
endloop
endfacet
facet normal -0.408999 0.912535 0.000000
outer loop
vertex 0.015000 0.012189 -0.750000
vertex 0.012500 0.011069 -0.750000
vertex 0.012500 0.011069 0.750000
endloop
endfacet
facet normal -0.408998 0.912535 0.000000
outer loop
vertex 0.015000 0.012189 -0.750000
vertex 0.012500 0.011069 0.750000
vertex 0.015000 0.012189 0.750000
endloop
endfacet
facet normal -0.358234 0.933632 0.000000
outer loop
vertex 0.020000 0.014108 -0.750000
vertex 0.015000 0.012189 -0.750000
vertex 0.015000 0.012189 0.750000
endloop
endfacet
facet normal -0.358234 0.933632 0.000000
outer loop
vertex 0.020000 0.014108 -0.750000
vertex 0.015000 0.012189 0.750000
vertex 0.020000 0.014108 0.750000
endloop
endfacet
facet normal -0.311963 0.950094 0.000000
outer loop
vertex 0.025000 0.015749 -0.750000
vertex 0.020000 0.014108 -0.750000
vertex 0.020000 0.014108 0.750000
endloop
endfacet
facet normal -0.311963 0.950094 0.000000
outer loop
vertex 0.025000 0.015749 -0.750000
vertex 0.020000 0.014108 0.750000
vertex 0.025000 0.015749 0.750000
endloop
endfacet
facet normal -0.270612 0.962688 0.000000
outer loop
vertex 0.030000 0.017155 -0.750000
vertex 0.025000 0.015749 -0.750000
vertex 0.025000 0.015749 0.750000
endloop
endfacet
facet normal -0.270612 0.962689 0.000000
outer loop
vertex 0.030000 0.017155 -0.750000
vertex 0.025000 0.015749 0.750000
vertex 0.030000 0.017155 0.750000
endloop
endfacet
facet normal -0.234108 0.972211 0.000000
outer loop
vertex 0.035000 0.018359 -0.750000
vertex 0.030000 0.017155 -0.750000
vertex 0.030000 0.017155 0.750000
endloop
endfacet
facet normal -0.234108 0.972211 0.000000
outer loop
vertex 0.035000 0.018359 -0.750000
vertex 0.030000 0.017155 0.750000
vertex 0.035000 0.018359 0.750000
endloop
endfacet
facet normal -0.202468 0.979289 0.000000
outer loop
vertex 0.040000 0.019393 -0.750000
vertex 0.035000 0.018359 -0.750000
vertex 0.035000 0.018359 0.750000
endloop
endfacet
facet normal -0.202468 0.979289 0.000000
outer loop
vertex 0.040000 0.019393 -0.750000
vertex 0.035000 0.018359 0.750000
vertex 0.040000 0.019393 0.750000
endloop
endfacet
facet normal -0.172285 0.985047 0.000000
outer loop
vertex 0.045000 0.020267 -0.750000
vertex 0.040000 0.019393 -0.750000
vertex 0.040000 0.019393 0.750000
endloop
endfacet
facet normal -0.172285 0.985047 0.000000
outer loop
vertex 0.045000 0.020267 -0.750000
vertex 0.040000 0.019393 0.750000
vertex 0.045000 0.020267 0.750000
endloop
endfacet
facet normal -0.141124 0.989992 0.000000
outer loop
vertex 0.050000 0.020980 -0.750000
vertex 0.045000 0.020267 -0.750000
vertex 0.045000 0.020267 0.750000
endloop
endfacet
facet normal -0.141123 0.989992 0.000000
outer loop
vertex 0.050000 0.020980 -0.750000
vertex 0.045000 0.020267 0.750000
vertex 0.050000 0.020980 0.750000
endloop
endfacet
facet normal -0.110470 0.993879 0.000000
outer loop
vertex 0.055000 0.021536 -0.750000
vertex 0.050000 0.020980 -0.750000
vertex 0.050000 0.020980 0.750000
endloop
endfacet
facet normal -0.110470 0.993879 0.000000
outer loop
vertex 0.055000 0.021536 -0.750000
vertex 0.050000 0.020980 0.750000
vertex 0.055000 0.021536 0.750000
endloop
endfacet
facet normal -0.084101 0.996457 0.000000
outer loop
vertex 0.060000 0.021958 -0.750000
vertex 0.055000 0.021536 -0.750000
vertex 0.055000 0.021536 0.750000
endloop
endfacet
facet normal -0.084101 0.996457 0.000000
outer loop
vertex 0.060000 0.021958 -0.750000
vertex 0.055000 0.021536 0.750000
vertex 0.060000 0.021958 0.750000
endloop
endfacet
facet normal -0.062527 0.998043 0.000000
outer loop
vertex 0.065000 0.022271 -0.750000
vertex 0.060000 0.021958 -0.750000
vertex 0.060000 0.021958 0.750000
endloop
endfacet
facet normal -0.062528 0.998043 0.000000
outer loop
vertex 0.065000 0.022271 -0.750000
vertex 0.060000 0.021958 0.750000
vertex 0.065000 0.022271 0.750000
endloop
endfacet
facet normal -0.045852 0.998948 0.000000
outer loop
vertex 0.070000 0.022501 -0.750000
vertex 0.065000 0.022271 -0.750000
vertex 0.065000 0.022271 0.750000
endloop
endfacet
facet normal -0.045852 0.998948 0.000000
outer loop
vertex 0.070000 0.022501 -0.750000
vertex 0.065000 0.022271 0.750000
vertex 0.070000 0.022501 0.750000
endloop
endfacet
facet normal -0.033881 0.999426 0.000000
outer loop
vertex 0.075000 0.022670 -0.750000
vertex 0.070000 0.022501 -0.750000
vertex 0.070000 0.022501 0.750000
endloop
endfacet
facet normal -0.033881 0.999426 0.000000
outer loop
vertex 0.075000 0.022670 -0.750000
vertex 0.070000 0.022501 0.750000
vertex 0.075000 0.022670 0.750000
endloop
endfacet
facet normal -0.025292 0.999680 0.000000
outer loop
vertex 0.080000 0.022797 -0.750000
vertex 0.075000 0.022670 -0.750000
vertex 0.075000 0.022670 0.750000
endloop
endfacet
facet normal -0.025292 0.999680 0.000000
outer loop
vertex 0.080000 0.022797 -0.750000
vertex 0.075000 0.022670 0.750000
vertex 0.080000 0.022797 0.750000
endloop
endfacet
facet normal -0.016098 0.999870 0.000000
outer loop
vertex 0.085000 0.022877 -0.750000
vertex 0.080000 0.022797 -0.750000
vertex 0.080000 0.022797 0.750000
endloop
endfacet
facet normal -0.016098 0.999870 0.000000
outer loop
vertex 0.085000 0.022877 -0.750000
vertex 0.080000 0.022797 0.750000
vertex 0.085000 0.022877 0.750000
endloop
endfacet
facet normal -0.005950 0.999982 0.000000
outer loop
vertex 0.090000 0.022907 -0.750000
vertex 0.085000 0.022877 -0.750000
vertex 0.085000 0.022877 0.750000
endloop
endfacet
facet normal -0.005950 0.999982 0.000000
outer loop
vertex 0.090000 0.022907 -0.750000
vertex 0.085000 0.022877 0.750000
vertex 0.090000 0.022907 0.750000
endloop
endfacet
facet normal 0.005300 0.999986 0.000000
outer loop
vertex 0.095000 0.022880 -0.750000
vertex 0.090000 0.022907 -0.750000
vertex 0.090000 0.022907 0.750000
endloop
endfacet
facet normal 0.005300 0.999986 0.000000
outer loop
vertex 0.095000 0.022880 -0.750000
vertex 0.090000 0.022907 0.750000
vertex 0.095000 0.022880 0.750000
endloop
endfacet
facet normal 0.017498 0.999847 0.000000
outer loop
vertex 0.100000 0.022793 -0.750000
vertex 0.095000 0.022880 -0.750000
vertex 0.095000 0.022880 0.750000
endloop
endfacet
facet normal 0.017498 0.999847 0.000000
outer loop
vertex 0.100000 0.022793 -0.750000
vertex 0.095000 0.022880 0.750000
vertex 0.100000 0.022793 0.750000
endloop
endfacet
facet normal 0.030236 0.999543 0.000000
outer loop
vertex 0.105000 0.022642 -0.750000
vertex 0.100000 0.022793 -0.750000
vertex 0.100000 0.022793 0.750000
endloop
endfacet
facet normal 0.030236 0.999543 0.000000
outer loop
vertex 0.105000 0.022642 -0.750000
vertex 0.100000 0.022793 0.750000
vertex 0.105000 0.022642 0.750000
endloop
endfacet
facet normal 0.042362 0.999102 0.000000
outer loop
vertex 0.110000 0.022429 -0.750000
vertex 0.105000 0.022642 -0.750000
vertex 0.105000 0.022642 0.750000
endloop
endfacet
facet normal 0.042362 0.999102 0.000000
outer loop
vertex 0.110000 0.022429 -0.750000
vertex 0.105000 0.022642 0.750000
vertex 0.110000 0.022429 0.750000
endloop
endfacet
facet normal 0.053673 0.998559 0.000000
outer loop
vertex 0.115000 0.022161 -0.750000
vertex 0.110000 0.022429 -0.750000
vertex 0.110000 0.022429 0.750000
endloop
endfacet
facet normal 0.053672 0.998559 0.000000
outer loop
vertex 0.115000 0.022161 -0.750000
vertex 0.110000 0.022429 0.750000
vertex 0.115000 0.022161 0.750000
endloop
endfacet
facet normal 0.064168 0.997939 0.000000
outer loop
vertex 0.120000 0.021839 -0.750000
vertex 0.115000 0.022161 -0.750000
vertex 0.115000 0.022161 0.750000
endloop
endfacet
facet normal 0.064168 0.997939 0.000000
outer loop
vertex 0.120000 0.021839 -0.750000
vertex 0.115000 0.022161 0.750000
vertex 0.120000 0.021839 0.750000
endloop
endfacet
facet normal 0.073798 0.997273 0.000000
outer loop
vertex 0.125000 0.021469 -0.750000
vertex 0.120000 0.021839 -0.750000
vertex 0.120000 0.021839 0.750000
endloop
endfacet
facet normal 0.073798 0.997273 0.000000
outer loop
vertex 0.125000 0.021469 -0.750000
vertex 0.120000 0.021839 0.750000
vertex 0.125000 0.021469 0.750000
endloop
endfacet
facet normal 0.082864 0.996561 0.000000
outer loop
vertex 0.130000 0.021054 -0.750000
vertex 0.125000 0.021469 -0.750000
vertex 0.125000 0.021469 0.750000
endloop
endfacet
facet normal 0.082864 0.996561 0.000000
outer loop
vertex 0.130000 0.021054 -0.750000
vertex 0.125000 0.021469 0.750000
vertex 0.130000 0.021054 0.750000
endloop
endfacet
facet normal 0.091762 0.995781 0.000000
outer loop
vertex 0.135000 0.020593 -0.750000
vertex 0.130000 0.021054 -0.750000
vertex 0.130000 0.021054 0.750000
endloop
endfacet
facet normal 0.091761 0.995781 0.000000
outer loop
vertex 0.135000 0.020593 -0.750000
vertex 0.130000 0.021054 0.750000
vertex 0.135000 0.020593 0.750000
endloop
endfacet
facet normal 0.100636 0.994923 0.000000
outer loop
vertex 0.140000 0.020087 -0.750000
vertex 0.135000 0.020593 -0.750000
vertex 0.135000 0.020593 0.750000
endloop
endfacet
facet normal 0.100636 0.994923 0.000000
outer loop
vertex 0.140000 0.020087 -0.750000
vertex 0.135000 0.020593 0.750000
vertex 0.140000 0.020087 0.750000
endloop
endfacet
facet normal 0.109488 0.993988 0.000000
outer loop
vertex 0.145000 0.019536 -0.750000
vertex 0.140000 0.020087 -0.750000
vertex 0.140000 0.020087 0.750000
endloop
endfacet
facet normal 0.109488 0.993988 0.000000
outer loop
vertex 0.145000 0.019536 -0.750000
vertex 0.140000 0.020087 0.750000
vertex 0.145000 0.019536 0.750000
endloop
endfacet
facet normal 0.118264 0.992982 0.000000
outer loop
vertex 0.150000 0.018941 -0.750000
vertex 0.145000 0.019536 -0.750000
vertex 0.145000 0.019536 0.750000
endloop
endfacet
facet normal 0.118264 0.992982 0.000000
outer loop
vertex 0.150000 0.018941 -0.750000
vertex 0.145000 0.019536 0.750000
vertex 0.150000 0.018941 0.750000
endloop
endfacet
facet normal 0.126818 0.991926 0.000000
outer loop
vertex 0.155000 0.018302 -0.750000
vertex 0.150000 0.018941 -0.750000
vertex 0.150000 0.018941 0.750000
endloop
endfacet
facet normal 0.126818 0.991926 0.000000
outer loop
vertex 0.155000 0.018302 -0.750000
vertex 0.150000 0.018941 0.750000
vertex 0.155000 0.018302 0.750000
endloop
endfacet
facet normal 0.134954 0.990852 0.000000
outer loop
vertex 0.160000 0.017621 -0.750000
vertex 0.155000 0.018302 -0.750000
vertex 0.155000 0.018302 0.750000
endloop
endfacet
facet normal 0.134954 0.990852 0.000000
outer loop
vertex 0.160000 0.017621 -0.750000
vertex 0.155000 0.018302 0.750000
vertex 0.160000 0.017621 0.750000
endloop
endfacet
facet normal 0.142384 0.989811 0.000000
outer loop
vertex 0.165000 0.016901 -0.750000
vertex 0.160000 0.017621 -0.750000
vertex 0.160000 0.017621 0.750000
endloop
endfacet
facet normal 0.142384 0.989812 0.000000
outer loop
vertex 0.165000 0.016901 -0.750000
vertex 0.160000 0.017621 0.750000
vertex 0.165000 0.016901 0.750000
endloop
endfacet
facet normal 0.149356 0.988783 0.000000
outer loop
vertex 0.170000 0.016146 -0.750000
vertex 0.165000 0.016901 -0.750000
vertex 0.165000 0.016901 0.750000
endloop
endfacet
facet normal 0.149356 0.988783 0.000000
outer loop
vertex 0.170000 0.016146 -0.750000
vertex 0.165000 0.016901 0.750000
vertex 0.170000 0.016146 0.750000
endloop
endfacet
facet normal 0.155631 0.987815 0.000000
outer loop
vertex 0.175000 0.015358 -0.750000
vertex 0.170000 0.016146 -0.750000
vertex 0.170000 0.016146 0.750000
endloop
endfacet
facet normal 0.155631 0.987815 0.000000
outer loop
vertex 0.175000 0.015358 -0.750000
vertex 0.170000 0.016146 0.750000
vertex 0.175000 0.015358 0.750000
endloop
endfacet
facet normal 0.161501 0.986873 0.000000
outer loop
vertex 0.180000 0.014540 -0.750000
vertex 0.175000 0.015358 -0.750000
vertex 0.175000 0.015358 0.750000
endloop
endfacet
facet normal 0.161502 0.986872 0.000000
outer loop
vertex 0.180000 0.014540 -0.750000
vertex 0.175000 0.015358 0.750000
vertex 0.180000 0.014540 0.750000
endloop
endfacet
facet normal 0.167260 0.985913 0.000000
outer loop
vertex 0.185000 0.013692 -0.750000
vertex 0.180000 0.014540 -0.750000
vertex 0.180000 0.014540 0.750000
endloop
endfacet
facet normal 0.167260 0.985913 0.000000
outer loop
vertex 0.185000 0.013692 -0.750000
vertex 0.180000 0.014540 0.750000
vertex 0.185000 0.013692 0.750000
endloop
endfacet
facet normal 0.172858 0.984947 0.000000
outer loop
vertex 0.190000 0.012814 -0.750000
vertex 0.185000 0.013692 -0.750000
vertex 0.185000 0.013692 0.750000
endloop
endfacet
facet normal 0.172858 0.984947 0.000000
outer loop
vertex 0.190000 0.012814 -0.750000
vertex 0.185000 0.013692 0.750000
vertex 0.190000 0.012814 0.750000
endloop
endfacet
facet normal 0.178535 0.983934 0.000000
outer loop
vertex 0.195000 0.011907 -0.750000
vertex 0.190000 0.012814 -0.750000
vertex 0.190000 0.012814 0.750000
endloop
endfacet
facet normal 0.178535 0.983934 0.000000
outer loop
vertex 0.195000 0.011907 -0.750000
vertex 0.190000 0.012814 0.750000
vertex 0.195000 0.011907 0.750000
endloop
endfacet
facet normal 0.184004 0.982926 0.000000
outer loop
vertex 0.200000 0.010971 -0.750000
vertex 0.195000 0.011907 -0.750000
vertex 0.195000 0.011907 0.750000
endloop
endfacet
facet normal 0.184002 0.982926 0.000000
outer loop
vertex 0.200000 0.010971 -0.750000
vertex 0.195000 0.011907 0.750000
vertex 0.200000 0.010971 0.750000
endloop
endfacet
facet normal 0.189503 0.981880 0.000000
outer loop
vertex 0.205000 0.010006 -0.750000
vertex 0.200000 0.010971 -0.750000
vertex 0.200000 0.010971 0.750000
endloop
endfacet
facet normal 0.189503 0.981880 0.000000
outer loop
vertex 0.205000 0.010006 -0.750000
vertex 0.200000 0.010971 0.750000
vertex 0.205000 0.010006 0.750000
endloop
endfacet
facet normal 0.194701 0.980863 0.000000
outer loop
vertex 0.210000 0.009014 -0.750000
vertex 0.205000 0.010006 -0.750000
vertex 0.205000 0.010006 0.750000
endloop
endfacet
facet normal 0.194701 0.980863 0.000000
outer loop
vertex 0.210000 0.009014 -0.750000
vertex 0.205000 0.010006 0.750000
vertex 0.210000 0.009014 0.750000
endloop
endfacet
facet normal 0.199882 0.979820 0.000000
outer loop
vertex 0.215000 0.007993 -0.750000
vertex 0.210000 0.009014 -0.750000
vertex 0.210000 0.009014 0.750000
endloop
endfacet
facet normal 0.199885 0.979819 0.000000
outer loop
vertex 0.215000 0.007993 -0.750000
vertex 0.210000 0.009014 0.750000
vertex 0.215000 0.007993 0.750000
endloop
endfacet
facet normal 0.204813 0.978801 0.000000
outer loop
vertex 0.220000 0.006947 -0.750000
vertex 0.215000 0.007993 -0.750000
vertex 0.215000 0.007993 0.750000
endloop
endfacet
facet normal 0.204816 0.978801 0.000000
outer loop
vertex 0.220000 0.006947 -0.750000
vertex 0.215000 0.007993 0.750000
vertex 0.220000 0.006947 0.750000
endloop
endfacet
facet normal 0.209588 0.977790 0.000000
outer loop
vertex 0.225000 0.005875 -0.750000
vertex 0.220000 0.006947 -0.750000
vertex 0.220000 0.006947 0.750000
endloop
endfacet
facet normal 0.209591 0.977789 0.000000
outer loop
vertex 0.225000 0.005875 -0.750000
vertex 0.220000 0.006947 0.750000
vertex 0.225000 0.005875 0.750000
endloop
endfacet
facet normal 0.214208 0.976788 0.000000
outer loop
vertex 0.230000 0.004779 -0.750000
vertex 0.225000 0.005875 -0.750000
vertex 0.225000 0.005875 0.750000
endloop
endfacet
facet normal 0.214210 0.976788 0.000000
outer loop
vertex 0.230000 0.004779 -0.750000
vertex 0.225000 0.005875 0.750000
vertex 0.230000 0.004779 0.750000
endloop
endfacet
facet normal 0.219141 0.975693 0.000000
outer loop
vertex 0.235000 0.003656 -0.750000
vertex 0.230000 0.004779 -0.750000
vertex 0.230000 0.004779 0.750000
endloop
endfacet
facet normal 0.219141 0.975693 0.000000
outer loop
vertex 0.235000 0.003656 -0.750000
vertex 0.230000 0.004779 0.750000
vertex 0.235000 0.003656 0.750000
endloop
endfacet
facet normal 0.224194 0.974545 0.000000
outer loop
vertex 0.240000 0.002506 -0.750000
vertex 0.235000 0.003656 -0.750000
vertex 0.235000 0.003656 0.750000
endloop
endfacet
facet normal 0.224194 0.974545 0.000000
outer loop
vertex 0.240000 0.002506 -0.750000
vertex 0.235000 0.003656 0.750000
vertex 0.240000 0.002506 0.750000
endloop
endfacet
facet normal 0.227474 0.973784 0.000000
outer loop
vertex 0.242500 0.001922 -0.750000
vertex 0.240000 0.002506 -0.750000
vertex 0.240000 0.002506 0.750000
endloop
endfacet
facet normal 0.227474 0.973784 0.000000
outer loop
vertex 0.242500 0.001922 -0.750000
vertex 0.240000 0.002506 0.750000
vertex 0.242500 0.001922 0.750000
endloop
endfacet
facet normal 0.229135 0.973394 0.000000
outer loop
vertex 0.245000 0.001333 -0.750000
vertex 0.242500 0.001922 -0.750000
vertex 0.242500 0.001922 0.750000
endloop
endfacet
facet normal 0.229139 0.973394 0.000000
outer loop
vertex 0.245000 0.001333 -0.750000
vertex 0.242500 0.001922 0.750000
vertex 0.245000 0.001333 0.750000
endloop
endfacet
facet normal 0.230061 0.973176 0.000000
outer loop
vertex 0.247500 0.000742 -0.750000
vertex 0.245000 0.001333 -0.750000
vertex 0.245000 0.001333 0.750000
endloop
endfacet
facet normal 0.230057 0.973177 0.000000
outer loop
vertex 0.247500 0.000742 -0.750000
vertex 0.245000 0.001333 0.750000
vertex 0.247500 0.000742 0.750000
endloop
endfacet
facet normal 0.230610 0.973046 0.000000
outer loop
vertex 0.250000 0.000150 -0.750000
vertex 0.247500 0.000742 -0.750000
vertex 0.247500 0.000742 0.750000
endloop
endfacet
facet normal 0.230614 0.973045 0.000000
outer loop
vertex 0.250000 0.000150 -0.750000
vertex 0.247500 0.000742 0.750000
vertex 0.250000 0.000150 0.750000
endloop
endfacet
facet normal 1.000000 0.000000 0.000000
outer loop
vertex 0.250000 -0.000150 -0.750000
vertex 0.250000 0.000150 -0.750000
vertex 0.250000 0.000150 0.750000
endloop
endfacet
facet normal 1.000000 0.000000 0.000000
outer loop
vertex 0.250000 -0.000150 -0.750000
vertex 0.250000 0.000150 0.750000
vertex 0.250000 -0.000150 0.750000
endloop
endfacet
facet normal 0.036775 -0.999324 0.000000
outer loop
vertex 0.247500 -0.000242 -0.750000
vertex 0.250000 -0.000150 -0.750000
vertex 0.250000 -0.000150 0.750000
endloop
endfacet
facet normal 0.036775 -0.999324 0.000000
outer loop
vertex 0.247500 -0.000242 -0.750000
vertex 0.250000 -0.000150 0.750000
vertex 0.247500 -0.000242 0.750000
endloop
endfacet
facet normal 0.000000 0.000000 -1.000000
outer loop
vertex 0.000000 0.000000 -0.750000
vertex 0.000125 0.000585 -0.750000
vertex 0.000125 -0.001168 -0.750000
endloop
endfacet
facet normal 0.001063 0.000000 -0.999999
outer loop
vertex 0.000125 -0.001168 -0.750000
vertex 0.000125 0.000585 -0.750000
vertex 0.000250 -0.001486 -0.750000
endloop
endfacet
facet normal 0.000000 0.000000 -1.000000
outer loop
vertex 0.000250 -0.001486 -0.750000
vertex 0.000250 0.000932 -0.750000
vertex 0.000500 -0.001953 -0.750000
endloop
endfacet
facet normal -0.000771 0.000000 -1.000000
outer loop
vertex 0.000125 0.000585 -0.750000
vertex 0.000250 0.000932 -0.750000
vertex 0.000250 -0.001486 -0.750000
endloop
endfacet
facet normal 0.000274 0.000000 -1.000000
outer loop
vertex 0.000500 -0.001953 -0.750000
vertex 0.000500 0.001451 -0.750000
vertex 0.001000 -0.002628 -0.750000
endloop
endfacet
facet normal -0.000547 0.000000 -1.000000
outer loop
vertex 0.000250 0.000932 -0.750000
vertex 0.000500 0.001451 -0.750000
vertex 0.000500 -0.001953 -0.750000
endloop
endfacet
facet normal 0.000000 0.000000 -1.000000
outer loop
vertex 0.001000 -0.002628 -0.750000
vertex 0.001000 0.002231 -0.750000
vertex 0.002000 -0.003572 -0.750000
endloop
endfacet
facet normal 0.000000 0.000000 -1.000000
outer loop
vertex 0.000500 0.001451 -0.750000
vertex 0.001000 0.002231 -0.750000
vertex 0.001000 -0.002628 -0.750000
endloop
endfacet
facet normal 0.000000 0.000000 -1.000000
outer loop
vertex 0.002000 -0.003572 -0.750000
vertex 0.002000 0.003434 -0.750000
vertex 0.003000 -0.004243 -0.750000
endloop
endfacet
facet normal 0.000064 0.000000 -1.000000
outer loop
vertex 0.003000 -0.004243 -0.750000
vertex 0.002000 0.003434 -0.750000
vertex 0.005000 -0.005068 -0.750000
endloop
endfacet
facet normal -0.000133 0.000000 -1.000000
outer loop
vertex 0.001000 0.002231 -0.750000
vertex 0.002000 0.003434 -0.750000
vertex 0.002000 -0.003572 -0.750000
endloop
endfacet
facet normal 0.000041 0.000000 -1.000000
outer loop
vertex 0.005000 -0.005068 -0.750000
vertex 0.003000 0.004465 -0.750000
vertex 0.007500 -0.005652 -0.750000
endloop
endfacet
facet normal -0.000080 0.000000 -1.000000
outer loop
vertex 0.002000 0.003434 -0.750000
vertex 0.003000 0.004465 -0.750000
vertex 0.005000 -0.005068 -0.750000
endloop
endfacet
facet normal -0.000065 0.000000 -1.000000
outer loop
vertex 0.007500 -0.005652 -0.750000
vertex 0.005000 0.006344 -0.750000
vertex 0.010000 -0.006130 -0.750000
endloop
endfacet
facet normal 0.000000 0.000000 -1.000000
outer loop
vertex 0.003000 0.004465 -0.750000
vertex 0.005000 0.006344 -0.750000
vertex 0.007500 -0.005652 -0.750000
endloop
endfacet
facet normal 0.000000 0.000000 -1.000000
outer loop
vertex 0.010000 -0.006130 -0.750000
vertex 0.007500 0.008256 -0.750000
vertex 0.012500 -0.006511 -0.750000
endloop
endfacet
facet normal 0.000046 0.000000 -1.000000
outer loop
vertex 0.005000 0.006344 -0.750000
vertex 0.007500 0.008256 -0.750000
vertex 0.010000 -0.006130 -0.750000
endloop
endfacet
facet normal 0.000000 0.000000 -1.000000
outer loop
vertex 0.012500 -0.006511 -0.750000
vertex 0.010000 0.009782 -0.750000
vertex 0.015000 -0.006782 -0.750000
endloop
endfacet
facet normal 0.000000 0.000000 -1.000000
outer loop
vertex 0.007500 0.008256 -0.750000
vertex 0.010000 0.009782 -0.750000
vertex 0.012500 -0.006511 -0.750000
endloop
endfacet
facet normal 0.000039 0.000000 -1.000000
outer loop
vertex 0.010000 0.009782 -0.750000
vertex 0.012500 0.011069 -0.750000
vertex 0.015000 -0.006782 -0.750000
endloop
endfacet
facet normal 0.000000 0.000000 -1.000000
outer loop
vertex 0.015000 -0.006782 -0.750000
vertex 0.015000 0.012189 -0.750000
vertex 0.020000 -0.007115 -0.750000
endloop
endfacet
facet normal 0.000000 0.000000 -1.000000
outer loop
vertex 0.012500 0.011069 -0.750000
vertex 0.015000 0.012189 -0.750000
vertex 0.015000 -0.006782 -0.750000
endloop
endfacet
facet normal 0.000000 0.000000 -1.000000
outer loop
vertex 0.020000 -0.007115 -0.750000
vertex 0.020000 0.014108 -0.750000
vertex 0.025000 -0.007345 -0.750000
endloop
endfacet
facet normal 0.000000 0.000000 -1.000000
outer loop
vertex 0.015000 0.012189 -0.750000
vertex 0.020000 0.014108 -0.750000
vertex 0.020000 -0.007115 -0.750000
endloop
endfacet
facet normal 0.000000 0.000000 -1.000000
outer loop
vertex 0.025000 -0.007345 -0.750000
vertex 0.025000 0.015749 -0.750000
vertex 0.030000 -0.007491 -0.750000
endloop
endfacet
facet normal 0.000000 0.000000 -1.000000
outer loop
vertex 0.020000 0.014108 -0.750000
vertex 0.025000 0.015749 -0.750000
vertex 0.025000 -0.007345 -0.750000
endloop
endfacet
facet normal 0.000030 0.000000 -1.000000
outer loop
vertex 0.030000 -0.007491 -0.750000
vertex 0.030000 0.017155 -0.750000
vertex 0.035000 -0.007560 -0.750000
endloop
endfacet
facet normal -0.000030 0.000000 -1.000000
outer loop
vertex 0.025000 0.015749 -0.750000
vertex 0.030000 0.017155 -0.750000
vertex 0.030000 -0.007491 -0.750000
endloop
endfacet
facet normal 0.000000 0.000000 -1.000000
outer loop
vertex 0.035000 -0.007560 -0.750000
vertex 0.035000 0.018359 -0.750000
vertex 0.040000 -0.007564 -0.750000
endloop
endfacet
facet normal 0.000000 0.000000 -1.000000
outer loop
vertex 0.030000 0.017155 -0.750000
vertex 0.035000 0.018359 -0.750000
vertex 0.035000 -0.007560 -0.750000
endloop
endfacet
facet normal -0.000028 0.000000 -1.000000
outer loop
vertex 0.040000 -0.007564 -0.750000
vertex 0.040000 0.019393 -0.750000
vertex 0.045000 -0.007512 -0.750000
endloop
endfacet
facet normal 0.000000 0.000000 -1.000000
outer loop
vertex 0.035000 0.018359 -0.750000
vertex 0.040000 0.019393 -0.750000
vertex 0.040000 -0.007564 -0.750000
endloop
endfacet
facet normal 0.000000 0.000000 -1.000000
outer loop
vertex 0.045000 -0.007512 -0.750000
vertex 0.045000 0.020267 -0.750000
vertex 0.050000 -0.007416 -0.750000
endloop
endfacet
facet normal 0.000000 0.000000 -1.000000
outer loop
vertex 0.040000 0.019393 -0.750000
vertex 0.045000 0.020267 -0.750000
vertex 0.045000 -0.007512 -0.750000
endloop
endfacet
facet normal 0.000000 0.000000 -1.000000
outer loop
vertex 0.050000 -0.007416 -0.750000
vertex 0.050000 0.020980 -0.750000
vertex 0.055000 -0.007286 -0.750000
endloop
endfacet
facet normal 0.000000 0.000000 -1.000000
outer loop
vertex 0.045000 0.020267 -0.750000
vertex 0.050000 0.020980 -0.750000
vertex 0.050000 -0.007416 -0.750000
endloop
endfacet
facet normal 0.000000 0.000000 -1.000000
outer loop
vertex 0.055000 -0.007286 -0.750000
vertex 0.055000 0.021536 -0.750000
vertex 0.060000 -0.007130 -0.750000
endloop
endfacet
facet normal 0.000000 0.000000 -1.000000
outer loop
vertex 0.050000 0.020980 -0.750000
vertex 0.055000 0.021536 -0.750000
vertex 0.055000 -0.007286 -0.750000
endloop
endfacet
facet normal 0.000000 0.000000 -1.000000
outer loop
vertex 0.060000 -0.007130 -0.750000
vertex 0.060000 0.021958 -0.750000
vertex 0.065000 -0.006954 -0.750000
endloop
endfacet
facet normal -0.000026 0.000000 -1.000000
outer loop
vertex 0.055000 0.021536 -0.750000
vertex 0.060000 0.021958 -0.750000
vertex 0.060000 -0.007130 -0.750000
endloop
endfacet
facet normal 0.000000 0.000000 -1.000000
outer loop
vertex 0.060000 0.021958 -0.750000
vertex 0.065000 0.022271 -0.750000
vertex 0.065000 -0.006954 -0.750000
endloop
endfacet
facet normal 0.000000 0.000000 -1.000000
outer loop
vertex 0.065000 -0.006954 -0.750000
vertex 0.065000 0.022271 -0.750000
vertex 0.070000 -0.006768 -0.750000
endloop
endfacet
facet normal -0.000025 0.000000 -1.000000
outer loop
vertex 0.065000 0.022271 -0.750000
vertex 0.070000 0.022501 -0.750000
vertex 0.070000 -0.006768 -0.750000
endloop
endfacet
facet normal 0.000000 0.000000 -1.000000
outer loop
vertex 0.070000 -0.006768 -0.750000
vertex 0.070000 0.022501 -0.750000
vertex 0.075000 -0.006577 -0.750000
endloop
endfacet
facet normal 0.000000 0.000000 -1.000000
outer loop
vertex 0.070000 0.022501 -0.750000
vertex 0.075000 0.022670 -0.750000
vertex 0.075000 -0.006577 -0.750000
endloop
endfacet
facet normal 0.000000 0.000000 -1.000000
outer loop
vertex 0.075000 -0.006577 -0.750000
vertex 0.075000 0.022670 -0.750000
vertex 0.080000 -0.006389 -0.750000
endloop
endfacet
facet normal 0.000000 0.000000 -1.000000
outer loop
vertex 0.075000 0.022670 -0.750000
vertex 0.080000 0.022797 -0.750000
vertex 0.080000 -0.006389 -0.750000
endloop
endfacet
facet normal -0.000051 0.000000 -1.000000
outer loop
vertex 0.080000 -0.006389 -0.750000
vertex 0.080000 0.022797 -0.750000
vertex 0.085000 -0.006204 -0.750000
endloop
endfacet
facet normal 0.000026 0.000000 -1.000000
outer loop
vertex 0.080000 0.022797 -0.750000
vertex 0.085000 0.022877 -0.750000
vertex 0.085000 -0.006204 -0.750000
endloop
endfacet
facet normal 0.000000 0.000000 -1.000000
outer loop
vertex 0.085000 -0.006204 -0.750000
vertex 0.085000 0.022877 -0.750000
vertex 0.090000 -0.006022 -0.750000
endloop
endfacet
facet normal 0.000026 0.000000 -1.000000
outer loop
vertex 0.085000 0.022877 -0.750000
vertex 0.090000 0.022907 -0.750000
vertex 0.090000 -0.006022 -0.750000
endloop
endfacet
facet normal -0.000026 0.000000 -1.000000
outer loop
vertex 0.090000 -0.006022 -0.750000
vertex 0.090000 0.022907 -0.750000
vertex 0.095000 -0.005840 -0.750000
endloop
endfacet
facet normal 0.000000 0.000000 -1.000000
outer loop
vertex 0.095000 -0.005840 -0.750000
vertex 0.095000 0.022880 -0.750000
vertex 0.100000 -0.005658 -0.750000
endloop
endfacet
facet normal 0.000000 0.000000 -1.000000
outer loop
vertex 0.090000 0.022907 -0.750000
vertex 0.095000 0.022880 -0.750000
vertex 0.095000 -0.005840 -0.750000
endloop
endfacet
facet normal 0.000000 0.000000 -1.000000
outer loop
vertex 0.100000 -0.005658 -0.750000
vertex 0.100000 0.022793 -0.750000
vertex 0.105000 -0.005476 -0.750000
endloop
endfacet
facet normal 0.000000 0.000000 -1.000000
outer loop
vertex 0.095000 0.022880 -0.750000
vertex 0.100000 0.022793 -0.750000
vertex 0.100000 -0.005658 -0.750000
endloop
endfacet
facet normal 0.000000 0.000000 -1.000000
outer loop
vertex 0.100000 0.022793 -0.750000
vertex 0.105000 0.022642 -0.750000
vertex 0.105000 -0.005476 -0.750000
endloop
endfacet
facet normal 0.000000 0.000000 -1.000000
outer loop
vertex 0.105000 -0.005476 -0.750000
vertex 0.110000 0.022429 -0.750000
vertex 0.110000 -0.005293 -0.750000
endloop
endfacet
facet normal 0.000000 0.000000 -1.000000
outer loop
vertex 0.105000 0.022642 -0.750000
vertex 0.110000 0.022429 -0.750000
vertex 0.105000 -0.005476 -0.750000
endloop
endfacet
facet normal 0.000014 0.000000 -1.000000
outer loop
vertex 0.110000 -0.005293 -0.750000
vertex 0.115000 0.022161 -0.750000
vertex 0.120000 -0.004925 -0.750000
endloop
endfacet
facet normal -0.000027 0.000000 -1.000000
outer loop
vertex 0.110000 0.022429 -0.750000
vertex 0.115000 0.022161 -0.750000
vertex 0.110000 -0.005293 -0.750000
endloop
endfacet
facet normal 0.000000 0.000000 -1.000000
outer loop
vertex 0.115000 0.022161 -0.750000
vertex 0.120000 0.021839 -0.750000
vertex 0.120000 -0.004925 -0.750000
endloop
endfacet
facet normal 0.000000 0.000000 -1.000000
outer loop
vertex 0.120000 0.021839 -0.750000
vertex 0.125000 0.021469 -0.750000
vertex 0.120000 -0.004925 -0.750000
endloop
endfacet
facet normal 0.000000 0.000000 -1.000000
outer loop
vertex 0.120000 -0.004925 -0.750000
vertex 0.125000 0.021469 -0.750000
vertex 0.125000 -0.004740 -0.750000
endloop
endfacet
facet normal 0.000000 0.000000 -1.000000
outer loop
vertex 0.125000 -0.004740 -0.750000
vertex 0.130000 0.021054 -0.750000
vertex 0.130000 -0.004556 -0.750000
endloop
endfacet
facet normal 0.000000 0.000000 -1.000000
outer loop
vertex 0.125000 0.021469 -0.750000
vertex 0.130000 0.021054 -0.750000
vertex 0.125000 -0.004740 -0.750000
endloop
endfacet
facet normal 0.000000 0.000000 -1.000000
outer loop
vertex 0.130000 -0.004556 -0.750000
vertex 0.135000 0.020593 -0.750000
vertex 0.135000 -0.004373 -0.750000
endloop
endfacet
facet normal 0.000000 0.000000 -1.000000
outer loop
vertex 0.130000 0.021054 -0.750000
vertex 0.135000 0.020593 -0.750000
vertex 0.130000 -0.004556 -0.750000
endloop
endfacet
facet normal 0.000000 0.000000 -1.000000
outer loop
vertex 0.135000 0.020593 -0.750000
vertex 0.140000 0.020087 -0.750000
vertex 0.135000 -0.004373 -0.750000
endloop
endfacet
facet normal 0.000000 0.000000 -1.000000
outer loop
vertex 0.140000 0.020087 -0.750000
vertex 0.145000 0.019536 -0.750000
vertex 0.135000 -0.004373 -0.750000
endloop
endfacet
facet normal 0.000000 0.000000 -1.000000
outer loop
vertex 0.135000 -0.004373 -0.750000
vertex 0.150000 0.018941 -0.750000
vertex 0.160000 -0.003455 -0.750000
endloop
endfacet
facet normal -0.000030 0.000000 -1.000000
outer loop
vertex 0.145000 0.019536 -0.750000
vertex 0.150000 0.018941 -0.750000
vertex 0.135000 -0.004373 -0.750000
endloop
endfacet
facet normal 0.000035 0.000000 -1.000000
outer loop
vertex 0.150000 0.018941 -0.750000
vertex 0.155000 0.018302 -0.750000
vertex 0.160000 -0.003455 -0.750000
endloop
endfacet
facet normal -0.000035 0.000000 -1.000000
outer loop
vertex 0.155000 0.018302 -0.750000
vertex 0.160000 0.017621 -0.750000
vertex 0.160000 -0.003455 -0.750000
endloop
endfacet
facet normal 0.000000 0.000000 -1.000000
outer loop
vertex 0.160000 -0.003455 -0.750000
vertex 0.165000 0.016901 -0.750000
vertex 0.170000 -0.003088 -0.750000
endloop
endfacet
facet normal 0.000000 0.000000 -1.000000
outer loop
vertex 0.160000 0.017621 -0.750000
vertex 0.165000 0.016901 -0.750000
vertex 0.160000 -0.003455 -0.750000
endloop
endfacet
facet normal 0.000000 0.000000 -1.000000
outer loop
vertex 0.165000 0.016901 -0.750000
vertex 0.170000 0.016146 -0.750000
vertex 0.170000 -0.003088 -0.750000
endloop
endfacet
facet normal 0.000000 0.000000 -1.000000
outer loop
vertex 0.170000 -0.003088 -0.750000
vertex 0.175000 0.015358 -0.750000
vertex 0.175000 -0.002904 -0.750000
endloop
endfacet
facet normal -0.000019 0.000000 -1.000000
outer loop
vertex 0.170000 0.016146 -0.750000
vertex 0.175000 0.015358 -0.750000
vertex 0.170000 -0.003088 -0.750000
endloop
endfacet
facet normal 0.000000 0.000000 -1.000000
outer loop
vertex 0.175000 -0.002904 -0.750000
vertex 0.180000 0.014540 -0.750000
vertex 0.180000 -0.002721 -0.750000
endloop
endfacet
facet normal 0.000020 0.000000 -1.000000
outer loop
vertex 0.175000 0.015358 -0.750000
vertex 0.180000 0.014540 -0.750000
vertex 0.175000 -0.002904 -0.750000
endloop
endfacet
facet normal 0.000000 0.000000 -1.000000
outer loop
vertex 0.180000 -0.002721 -0.750000
vertex 0.185000 0.013692 -0.750000
vertex 0.185000 -0.002537 -0.750000
endloop
endfacet
facet normal -0.000022 0.000000 -1.000000
outer loop
vertex 0.180000 0.014540 -0.750000
vertex 0.185000 0.013692 -0.750000
vertex 0.180000 -0.002721 -0.750000
endloop
endfacet
facet normal 0.000000 0.000000 -1.000000
outer loop
vertex 0.185000 -0.002537 -0.750000
vertex 0.190000 0.012814 -0.750000
vertex 0.190000 -0.002353 -0.750000
endloop
endfacet
facet normal 0.000000 0.000000 -1.000000
outer loop
vertex 0.185000 0.013692 -0.750000
vertex 0.190000 0.012814 -0.750000
vertex 0.185000 -0.002537 -0.750000
endloop
endfacet
facet normal 0.000000 0.000000 -1.000000
outer loop
vertex 0.190000 -0.002353 -0.750000
vertex 0.195000 0.011907 -0.750000
vertex 0.195000 -0.002170 -0.750000
endloop
endfacet
facet normal 0.000000 0.000000 -1.000000
outer loop
vertex 0.190000 0.012814 -0.750000
vertex 0.195000 0.011907 -0.750000
vertex 0.190000 -0.002353 -0.750000
endloop
endfacet
facet normal 0.000000 0.000000 -1.000000
outer loop
vertex 0.195000 -0.002170 -0.750000
vertex 0.200000 0.010971 -0.750000
vertex 0.200000 -0.001986 -0.750000
endloop
endfacet
facet normal 0.000000 0.000000 -1.000000
outer loop
vertex 0.195000 0.011907 -0.750000
vertex 0.200000 0.010971 -0.750000
vertex 0.195000 -0.002170 -0.750000
endloop
endfacet
facet normal -0.000032 0.000000 -1.000000
outer loop
vertex 0.200000 -0.001986 -0.750000
vertex 0.205000 0.010006 -0.750000
vertex 0.205000 -0.001802 -0.750000
endloop
endfacet
facet normal 0.000000 0.000000 -1.000000
outer loop
vertex 0.200000 0.010971 -0.750000
vertex 0.205000 0.010006 -0.750000
vertex 0.200000 -0.001986 -0.750000
endloop
endfacet
facet normal 0.000000 0.000000 -1.000000
outer loop
vertex 0.205000 0.010006 -0.750000
vertex 0.210000 0.009014 -0.750000
vertex 0.205000 -0.001802 -0.750000
endloop
endfacet
facet normal 0.000000 0.000000 -1.000000
outer loop
vertex 0.205000 -0.001802 -0.750000
vertex 0.210000 0.009014 -0.750000
vertex 0.210000 -0.001619 -0.750000
endloop
endfacet
facet normal 0.000000 0.000000 -1.000000
outer loop
vertex 0.210000 0.009014 -0.750000
vertex 0.215000 0.007993 -0.750000
vertex 0.210000 -0.001619 -0.750000
endloop
endfacet
facet normal 0.000020 0.000000 -1.000000
outer loop
vertex 0.210000 -0.001619 -0.750000
vertex 0.215000 0.007993 -0.750000
vertex 0.215000 -0.001435 -0.750000
endloop
endfacet
facet normal -0.000020 0.000000 -1.000000
outer loop
vertex 0.215000 0.007993 -0.750000
vertex 0.220000 0.006947 -0.750000
vertex 0.215000 -0.001435 -0.750000
endloop
endfacet
facet normal 0.000000 0.000000 -1.000000
outer loop
vertex 0.215000 -0.001435 -0.750000
vertex 0.220000 0.006947 -0.750000
vertex 0.220000 -0.001251 -0.750000
endloop
endfacet
facet normal 0.000023 0.000000 -1.000000
outer loop
vertex 0.220000 0.006947 -0.750000
vertex 0.225000 0.005875 -0.750000
vertex 0.220000 -0.001251 -0.750000
endloop
endfacet
facet normal 0.000027 0.000000 -1.000000
outer loop
vertex 0.220000 -0.001251 -0.750000
vertex 0.225000 0.005875 -0.750000
vertex 0.225000 -0.001068 -0.750000
endloop
endfacet
facet normal 0.000000 0.000000 -1.000000
outer loop
vertex 0.225000 0.005875 -0.750000
vertex 0.230000 0.004779 -0.750000
vertex 0.225000 -0.001068 -0.750000
endloop
endfacet
facet normal 0.000000 0.000000 -1.000000
outer loop
vertex 0.225000 -0.001068 -0.750000
vertex 0.230000 0.004779 -0.750000
vertex 0.230000 -0.000884 -0.750000
endloop
endfacet
facet normal 0.000000 0.000000 -1.000000
outer loop
vertex 0.230000 0.004779 -0.750000
vertex 0.235000 0.003656 -0.750000
vertex 0.230000 -0.000884 -0.750000
endloop
endfacet
facet normal -0.000021 0.000000 -1.000000
outer loop
vertex 0.230000 -0.000884 -0.750000
vertex 0.235000 0.003656 -0.750000
vertex 0.235000 -0.000701 -0.750000
endloop
endfacet
facet normal 0.000021 0.000000 -1.000000
outer loop
vertex 0.235000 0.003656 -0.750000
vertex 0.240000 0.002506 -0.750000
vertex 0.235000 -0.000701 -0.750000
endloop
endfacet
facet normal 0.000000 0.000000 -1.000000
outer loop
vertex 0.235000 -0.000701 -0.750000
vertex 0.240000 0.002506 -0.750000
vertex 0.240000 -0.000517 -0.750000
endloop
endfacet
facet normal -0.000031 0.000000 -1.000000
outer loop
vertex 0.240000 0.002506 -0.750000
vertex 0.242500 0.001922 -0.750000
vertex 0.240000 -0.000517 -0.750000
endloop
endfacet
facet normal 0.000031 0.000000 -1.000000
outer loop
vertex 0.242500 0.001922 -0.750000
vertex 0.245000 0.001333 -0.750000
vertex 0.240000 -0.000517 -0.750000
endloop
endfacet
facet normal -0.000009 0.000000 -1.000000
outer loop
vertex 0.245000 0.001333 -0.750000
vertex 0.247500 -0.000242 -0.750000
vertex 0.240000 -0.000517 -0.750000
endloop
endfacet
facet normal 0.000000 0.000000 -1.000000
outer loop
vertex 0.245000 0.001333 -0.750000
vertex 0.247500 0.000742 -0.750000
vertex 0.247500 -0.000242 -0.750000
endloop
endfacet
facet normal 0.000047 0.000000 -1.000000
outer loop
vertex 0.247500 0.000742 -0.750000
vertex 0.250000 0.000150 -0.750000
vertex 0.247500 -0.000242 -0.750000
endloop
endfacet
facet normal -0.000039 0.000000 -1.000000
outer loop
vertex 0.247500 -0.000242 -0.750000
vertex 0.250000 0.000150 -0.750000
vertex 0.250000 -0.000150 -0.750000
endloop
endfacet
facet normal 0.036725 -0.999325 0.000000
outer loop
vertex 0.235000 -0.000701 -0.750000
vertex 0.240000 -0.000517 -0.750000
vertex 0.240000 -0.000517 0.750000
endloop
endfacet
facet normal 0.036725 -0.999325 0.000000
outer loop
vertex 0.235000 -0.000701 -0.750000
vertex 0.240000 -0.000517 0.750000
vertex 0.235000 -0.000701 0.750000
endloop
endfacet
facet normal 0.036675 -0.999327 0.000000
outer loop
vertex 0.230000 -0.000884 -0.750000
vertex 0.235000 -0.000701 -0.750000
vertex 0.235000 -0.000701 0.750000
endloop
endfacet
facet normal 0.036675 -0.999327 0.000000
outer loop
vertex 0.230000 -0.000884 -0.750000
vertex 0.235000 -0.000701 0.750000
vertex 0.230000 -0.000884 0.750000
endloop
endfacet
facet normal 0.036725 -0.999325 0.000000
outer loop
vertex 0.225000 -0.001068 -0.750000
vertex 0.230000 -0.000884 -0.750000
vertex 0.230000 -0.000884 0.750000
endloop
endfacet
facet normal 0.036725 -0.999325 0.000000
outer loop
vertex 0.225000 -0.001068 -0.750000
vertex 0.230000 -0.000884 0.750000
vertex 0.225000 -0.001068 0.750000
endloop
endfacet
facet normal 0.036676 -0.999327 0.000000
outer loop
vertex 0.220000 -0.001251 -0.750000
vertex 0.225000 -0.001068 -0.750000
vertex 0.225000 -0.001068 0.750000
endloop
endfacet
facet normal 0.036675 -0.999327 0.000000
outer loop
vertex 0.220000 -0.001251 -0.750000
vertex 0.225000 -0.001068 0.750000
vertex 0.220000 -0.001251 0.750000
endloop
endfacet
facet normal 0.036726 -0.999325 0.000000
outer loop
vertex 0.215000 -0.001435 -0.750000
vertex 0.220000 -0.001251 -0.750000
vertex 0.220000 -0.001251 0.750000
endloop
endfacet
facet normal 0.036725 -0.999325 0.000000
outer loop
vertex 0.215000 -0.001435 -0.750000
vertex 0.220000 -0.001251 0.750000
vertex 0.215000 -0.001435 0.750000
endloop
endfacet
facet normal 0.036676 -0.999327 0.000000
outer loop
vertex 0.210000 -0.001619 -0.750000
vertex 0.215000 -0.001435 -0.750000
vertex 0.215000 -0.001435 0.750000
endloop
endfacet
facet normal 0.036675 -0.999327 0.000000
outer loop
vertex 0.210000 -0.001619 -0.750000
vertex 0.215000 -0.001435 0.750000
vertex 0.210000 -0.001619 0.750000
endloop
endfacet
facet normal 0.036725 -0.999325 0.000000
outer loop
vertex 0.205000 -0.001802 -0.750000
vertex 0.210000 -0.001619 -0.750000
vertex 0.210000 -0.001619 0.750000
endloop
endfacet
facet normal 0.036725 -0.999325 0.000000
outer loop
vertex 0.205000 -0.001802 -0.750000
vertex 0.210000 -0.001619 0.750000
vertex 0.205000 -0.001802 0.750000
endloop
endfacet
facet normal 0.036675 -0.999327 0.000000
outer loop
vertex 0.200000 -0.001986 -0.750000
vertex 0.205000 -0.001802 -0.750000
vertex 0.205000 -0.001802 0.750000
endloop
endfacet
facet normal 0.036675 -0.999327 0.000000
outer loop
vertex 0.200000 -0.001986 -0.750000
vertex 0.205000 -0.001802 0.750000
vertex 0.200000 -0.001986 0.750000
endloop
endfacet
facet normal 0.036725 -0.999325 0.000000
outer loop
vertex 0.195000 -0.002170 -0.750000
vertex 0.200000 -0.001986 -0.750000
vertex 0.200000 -0.001986 0.750000
endloop
endfacet
facet normal 0.036725 -0.999325 0.000000
outer loop
vertex 0.195000 -0.002170 -0.750000
vertex 0.200000 -0.001986 0.750000
vertex 0.195000 -0.002170 0.750000
endloop
endfacet
facet normal 0.036675 -0.999327 0.000000
outer loop
vertex 0.190000 -0.002353 -0.750000
vertex 0.195000 -0.002170 -0.750000
vertex 0.195000 -0.002170 0.750000
endloop
endfacet
facet normal 0.036675 -0.999327 0.000000
outer loop
vertex 0.190000 -0.002353 -0.750000
vertex 0.195000 -0.002170 0.750000
vertex 0.190000 -0.002353 0.750000
endloop
endfacet
facet normal 0.036725 -0.999325 0.000000
outer loop
vertex 0.185000 -0.002537 -0.750000
vertex 0.190000 -0.002353 -0.750000
vertex 0.190000 -0.002353 0.750000
endloop
endfacet
facet normal 0.036725 -0.999325 0.000000
outer loop
vertex 0.185000 -0.002537 -0.750000
vertex 0.190000 -0.002353 0.750000
vertex 0.185000 -0.002537 0.750000
endloop
endfacet
facet normal 0.036675 -0.999327 0.000000
outer loop
vertex 0.180000 -0.002721 -0.750000
vertex 0.185000 -0.002537 -0.750000
vertex 0.185000 -0.002537 0.750000
endloop
endfacet
facet normal 0.036675 -0.999327 0.000000
outer loop
vertex 0.180000 -0.002721 -0.750000
vertex 0.185000 -0.002537 0.750000
vertex 0.180000 -0.002721 0.750000
endloop
endfacet
facet normal 0.036725 -0.999325 0.000000
outer loop
vertex 0.175000 -0.002904 -0.750000
vertex 0.180000 -0.002721 -0.750000
vertex 0.180000 -0.002721 0.750000
endloop
endfacet
facet normal 0.036725 -0.999325 0.000000
outer loop
vertex 0.175000 -0.002904 -0.750000
vertex 0.180000 -0.002721 0.750000
vertex 0.175000 -0.002904 0.750000
endloop
endfacet
facet normal 0.036675 -0.999327 0.000000
outer loop
vertex 0.170000 -0.003088 -0.750000
vertex 0.175000 -0.002904 -0.750000
vertex 0.175000 -0.002904 0.750000
endloop
endfacet
facet normal 0.036675 -0.999327 0.000000
outer loop
vertex 0.170000 -0.003088 -0.750000
vertex 0.175000 -0.002904 0.750000
vertex 0.170000 -0.003088 0.750000
endloop
endfacet
facet normal 0.036725 -0.999325 0.000000
outer loop
vertex 0.130000 -0.004556 -0.750000
vertex 0.135000 -0.004373 -0.750000
vertex 0.135000 -0.004373 0.750000
endloop
endfacet
facet normal 0.036725 -0.999325 0.000000
outer loop
vertex 0.130000 -0.004556 -0.750000
vertex 0.135000 -0.004373 0.750000
vertex 0.130000 -0.004556 0.750000
endloop
endfacet
facet normal 0.036775 -0.999324 0.000000
outer loop
vertex 0.125000 -0.004740 -0.750000
vertex 0.130000 -0.004556 -0.750000
vertex 0.130000 -0.004556 0.750000
endloop
endfacet
facet normal 0.036775 -0.999324 0.000000
outer loop
vertex 0.125000 -0.004740 -0.750000
vertex 0.130000 -0.004556 0.750000
vertex 0.125000 -0.004740 0.750000
endloop
endfacet
facet normal 0.036825 -0.999322 0.000000
outer loop
vertex 0.120000 -0.004925 -0.750000
vertex 0.125000 -0.004740 -0.750000
vertex 0.125000 -0.004740 0.750000
endloop
endfacet
facet normal 0.036825 -0.999322 0.000000
outer loop
vertex 0.120000 -0.004925 -0.750000
vertex 0.125000 -0.004740 0.750000
vertex 0.120000 -0.004925 0.750000
endloop
endfacet
facet normal -0.000532 0.000000 1.000000
outer loop
vertex 0.000125 0.000585 0.750000
vertex 0.000000 0.000000 0.750000
vertex 0.000125 -0.001168 0.750000
endloop
endfacet
facet normal 0.001329 0.000000 0.999999
outer loop
vertex 0.000125 0.000585 0.750000
vertex 0.000125 -0.001168 0.750000
vertex 0.000250 -0.001486 0.750000
endloop
endfacet
facet normal 0.000096 0.000000 1.000000
outer loop
vertex 0.000250 0.000932 0.750000
vertex 0.000250 -0.001486 0.750000
vertex 0.000500 -0.001953 0.750000
endloop
endfacet
facet normal -0.000771 0.000000 1.000000
outer loop
vertex 0.000250 0.000932 0.750000
vertex 0.000125 0.000585 0.750000
vertex 0.000250 -0.001486 0.750000
endloop
endfacet
facet normal 0.000274 0.000000 1.000000
outer loop
vertex 0.000500 0.001451 0.750000
vertex 0.000500 -0.001953 0.750000
vertex 0.001000 -0.002628 0.750000
endloop
endfacet
facet normal -0.000547 0.000000 1.000000
outer loop
vertex 0.000500 0.001451 0.750000
vertex 0.000250 0.000932 0.750000
vertex 0.000500 -0.001953 0.750000
endloop
endfacet
facet normal 0.000096 0.000000 1.000000
outer loop
vertex 0.001000 0.002231 0.750000
vertex 0.001000 -0.002628 0.750000
vertex 0.002000 -0.003572 0.750000
endloop
endfacet
facet normal 0.000000 0.000000 1.000000
outer loop
vertex 0.001000 0.002231 0.750000
vertex 0.000500 0.001451 0.750000
vertex 0.001000 -0.002628 0.750000
endloop
endfacet
facet normal 0.000000 0.000000 1.000000
outer loop
vertex 0.002000 0.003434 0.750000
vertex 0.002000 -0.003572 0.750000
vertex 0.003000 -0.004243 0.750000
endloop
endfacet
facet normal 0.000048 0.000000 1.000000
outer loop
vertex 0.002000 0.003434 0.750000
vertex 0.003000 -0.004243 0.750000
vertex 0.005000 -0.005068 0.750000
endloop
endfacet
facet normal 0.000000 0.000000 1.000000
outer loop
vertex 0.002000 0.003434 0.750000
vertex 0.001000 0.002231 0.750000
vertex 0.002000 -0.003572 0.750000
endloop
endfacet
facet normal 0.000031 0.000000 1.000000
outer loop
vertex 0.003000 0.004465 0.750000
vertex 0.005000 -0.005068 0.750000
vertex 0.007500 -0.005652 0.750000
endloop
endfacet
facet normal -0.000080 0.000000 1.000000
outer loop
vertex 0.003000 0.004465 0.750000
vertex 0.002000 0.003434 0.750000
vertex 0.005000 -0.005068 0.750000
endloop
endfacet
facet normal -0.000032 0.000000 1.000000
outer loop
vertex 0.005000 0.006344 0.750000
vertex 0.007500 -0.005652 0.750000
vertex 0.010000 -0.006130 0.750000
endloop
endfacet
facet normal 0.000000 0.000000 1.000000
outer loop
vertex 0.005000 0.006344 0.750000
vertex 0.003000 0.004465 0.750000
vertex 0.007500 -0.005652 0.750000
endloop
endfacet
facet normal -0.000020 0.000000 1.000000
outer loop
vertex 0.007500 0.008256 0.750000
vertex 0.010000 -0.006130 0.750000
vertex 0.012500 -0.006511 0.750000
endloop
endfacet
facet normal 0.000046 0.000000 1.000000
outer loop
vertex 0.007500 0.008256 0.750000
vertex 0.005000 0.006344 0.750000
vertex 0.010000 -0.006130 0.750000
endloop
endfacet
facet normal -0.000017 0.000000 1.000000
outer loop
vertex 0.010000 0.009782 0.750000
vertex 0.012500 -0.006511 0.750000
vertex 0.015000 -0.006782 0.750000
endloop
endfacet
facet normal 0.000000 0.000000 1.000000
outer loop
vertex 0.010000 0.009782 0.750000
vertex 0.007500 0.008256 0.750000
vertex 0.012500 -0.006511 0.750000
endloop
endfacet
facet normal 0.000039 0.000000 1.000000
outer loop
vertex 0.012500 0.011069 0.750000
vertex 0.010000 0.009782 0.750000
vertex 0.015000 -0.006782 0.750000
endloop
endfacet
facet normal -0.000007 0.000000 1.000000
outer loop
vertex 0.015000 0.012189 0.750000
vertex 0.015000 -0.006782 0.750000
vertex 0.020000 -0.007115 0.750000
endloop
endfacet
facet normal 0.000000 0.000000 1.000000
outer loop
vertex 0.015000 0.012189 0.750000
vertex 0.012500 0.011069 0.750000
vertex 0.015000 -0.006782 0.750000
endloop
endfacet
facet normal 0.000013 0.000000 1.000000
outer loop
vertex 0.020000 0.014108 0.750000
vertex 0.020000 -0.007115 0.750000
vertex 0.025000 -0.007345 0.750000
endloop
endfacet
facet normal 0.000000 0.000000 1.000000
outer loop
vertex 0.020000 0.014108 0.750000
vertex 0.015000 0.012189 0.750000
vertex 0.020000 -0.007115 0.750000
endloop
endfacet
facet normal 0.000008 0.000000 1.000000
outer loop
vertex 0.025000 0.015749 0.750000
vertex 0.025000 -0.007345 0.750000
vertex 0.030000 -0.007491 0.750000
endloop
endfacet
facet normal 0.000000 0.000000 1.000000
outer loop
vertex 0.025000 0.015749 0.750000
vertex 0.020000 0.014108 0.750000
vertex 0.025000 -0.007345 0.750000
endloop
endfacet
facet normal 0.000021 0.000000 1.000000
outer loop
vertex 0.030000 0.017155 0.750000
vertex 0.030000 -0.007491 0.750000
vertex 0.035000 -0.007560 0.750000
endloop
endfacet
facet normal -0.000030 0.000000 1.000000
outer loop
vertex 0.030000 0.017155 0.750000
vertex 0.025000 0.015749 0.750000
vertex 0.030000 -0.007491 0.750000
endloop
endfacet
facet normal -0.000002 0.000000 1.000000
outer loop
vertex 0.035000 0.018359 0.750000
vertex 0.035000 -0.007560 0.750000
vertex 0.040000 -0.007564 0.750000
endloop
endfacet
facet normal 0.000000 0.000000 1.000000
outer loop
vertex 0.035000 0.018359 0.750000
vertex 0.030000 0.017155 0.750000
vertex 0.035000 -0.007560 0.750000
endloop
endfacet
facet normal -0.000016 0.000000 1.000000
outer loop
vertex 0.040000 0.019393 0.750000
vertex 0.040000 -0.007564 0.750000
vertex 0.045000 -0.007512 0.750000
endloop
endfacet
facet normal 0.000000 0.000000 1.000000
outer loop
vertex 0.040000 0.019393 0.750000
vertex 0.035000 0.018359 0.750000
vertex 0.040000 -0.007564 0.750000
endloop
endfacet
facet normal -0.000003 0.000000 1.000000
outer loop
vertex 0.045000 0.020267 0.750000
vertex 0.045000 -0.007512 0.750000
vertex 0.050000 -0.007416 0.750000
endloop
endfacet
facet normal 0.000000 0.000000 1.000000
outer loop
vertex 0.045000 0.020267 0.750000
vertex 0.040000 0.019393 0.750000
vertex 0.045000 -0.007512 0.750000
endloop
endfacet
facet normal -0.000011 0.000000 1.000000
outer loop
vertex 0.050000 0.020980 0.750000
vertex 0.050000 -0.007416 0.750000
vertex 0.055000 -0.007286 0.750000
endloop
endfacet
facet normal 0.000000 0.000000 1.000000
outer loop
vertex 0.050000 0.020980 0.750000
vertex 0.045000 0.020267 0.750000
vertex 0.050000 -0.007416 0.750000
endloop
endfacet
facet normal 0.000003 0.000000 1.000000
outer loop
vertex 0.055000 0.021536 0.750000
vertex 0.055000 -0.007286 0.750000
vertex 0.060000 -0.007130 0.750000
endloop
endfacet
facet normal 0.000000 0.000000 1.000000
outer loop
vertex 0.055000 0.021536 0.750000
vertex 0.050000 0.020980 0.750000
vertex 0.055000 -0.007286 0.750000
endloop
endfacet
facet normal 0.000006 0.000000 1.000000
outer loop
vertex 0.060000 0.021958 0.750000
vertex 0.060000 -0.007130 0.750000
vertex 0.065000 -0.006954 0.750000
endloop
endfacet
facet normal -0.000026 0.000000 1.000000
outer loop
vertex 0.060000 0.021958 0.750000
vertex 0.055000 0.021536 0.750000
vertex 0.060000 -0.007130 0.750000
endloop
endfacet
facet normal 0.000000 0.000000 1.000000
outer loop
vertex 0.065000 0.022271 0.750000
vertex 0.060000 0.021958 0.750000
vertex 0.065000 -0.006954 0.750000
endloop
endfacet
facet normal 0.000008 0.000000 1.000000
outer loop
vertex 0.065000 0.022271 0.750000
vertex 0.065000 -0.006954 0.750000
vertex 0.070000 -0.006768 0.750000
endloop
endfacet
facet normal -0.000025 0.000000 1.000000
outer loop
vertex 0.070000 0.022501 0.750000
vertex 0.065000 0.022271 0.750000
vertex 0.070000 -0.006768 0.750000
endloop
endfacet
facet normal 0.000013 0.000000 1.000000
outer loop
vertex 0.070000 0.022501 0.750000
vertex 0.070000 -0.006768 0.750000
vertex 0.075000 -0.006577 0.750000
endloop
endfacet
facet normal 0.000000 0.000000 1.000000
outer loop
vertex 0.075000 0.022670 0.750000
vertex 0.070000 0.022501 0.750000
vertex 0.075000 -0.006577 0.750000
endloop
endfacet
facet normal 0.000005 0.000000 1.000000
outer loop
vertex 0.075000 0.022670 0.750000
vertex 0.075000 -0.006577 0.750000
vertex 0.080000 -0.006389 0.750000
endloop
endfacet
facet normal 0.000026 0.000000 1.000000
outer loop
vertex 0.080000 0.022797 0.750000
vertex 0.075000 0.022670 0.750000
vertex 0.080000 -0.006389 0.750000
endloop
endfacet
facet normal -0.000040 0.000000 1.000000
outer loop
vertex 0.080000 0.022797 0.750000
vertex 0.080000 -0.006389 0.750000
vertex 0.085000 -0.006204 0.750000
endloop
endfacet
facet normal 0.000000 0.000000 1.000000
outer loop
vertex 0.085000 0.022877 0.750000
vertex 0.080000 0.022797 0.750000
vertex 0.085000 -0.006204 0.750000
endloop
endfacet
facet normal 0.000006 0.000000 1.000000
outer loop
vertex 0.085000 0.022877 0.750000
vertex 0.085000 -0.006204 0.750000
vertex 0.090000 -0.006022 0.750000
endloop
endfacet
facet normal 0.000026 0.000000 1.000000
outer loop
vertex 0.090000 0.022907 0.750000
vertex 0.085000 0.022877 0.750000
vertex 0.090000 -0.006022 0.750000
endloop
endfacet
facet normal -0.000018 0.000000 1.000000
outer loop
vertex 0.090000 0.022907 0.750000
vertex 0.090000 -0.006022 0.750000
vertex 0.095000 -0.005840 0.750000
endloop
endfacet
facet normal -0.000005 0.000000 1.000000
outer loop
vertex 0.095000 0.022880 0.750000
vertex 0.095000 -0.005840 0.750000
vertex 0.100000 -0.005658 0.750000
endloop
endfacet
facet normal 0.000000 0.000000 1.000000
outer loop
vertex 0.095000 0.022880 0.750000
vertex 0.090000 0.022907 0.750000
vertex 0.095000 -0.005840 0.750000
endloop
endfacet
facet normal -0.000007 0.000000 1.000000
outer loop
vertex 0.100000 0.022793 0.750000
vertex 0.100000 -0.005658 0.750000
vertex 0.105000 -0.005476 0.750000
endloop
endfacet
facet normal 0.000000 0.000000 1.000000
outer loop
vertex 0.100000 0.022793 0.750000
vertex 0.095000 0.022880 0.750000
vertex 0.100000 -0.005658 0.750000
endloop
endfacet
facet normal 0.000000 0.000000 1.000000
outer loop
vertex 0.105000 0.022642 0.750000
vertex 0.100000 0.022793 0.750000
vertex 0.105000 -0.005476 0.750000
endloop
endfacet
facet normal -0.000003 0.000000 1.000000
outer loop
vertex 0.110000 0.022429 0.750000
vertex 0.105000 -0.005476 0.750000
vertex 0.110000 -0.005293 0.750000
endloop
endfacet
facet normal 0.000000 0.000000 1.000000
outer loop
vertex 0.110000 0.022429 0.750000
vertex 0.105000 0.022642 0.750000
vertex 0.105000 -0.005476 0.750000
endloop
endfacet
facet normal 0.000009 0.000000 1.000000
outer loop
vertex 0.115000 0.022161 0.750000
vertex 0.110000 -0.005293 0.750000
vertex 0.120000 -0.004925 0.750000
endloop
endfacet
facet normal -0.000027 0.000000 1.000000
outer loop
vertex 0.115000 0.022161 0.750000
vertex 0.110000 0.022429 0.750000
vertex 0.110000 -0.005293 0.750000
endloop
endfacet
facet normal 0.000000 0.000000 1.000000
outer loop
vertex 0.120000 0.021839 0.750000
vertex 0.115000 0.022161 0.750000
vertex 0.120000 -0.004925 0.750000
endloop
endfacet
facet normal 0.000000 0.000000 1.000000
outer loop
vertex 0.125000 0.021469 0.750000
vertex 0.120000 0.021839 0.750000
vertex 0.120000 -0.004925 0.750000
endloop
endfacet
facet normal 0.000004 0.000000 1.000000
outer loop
vertex 0.125000 0.021469 0.750000
vertex 0.120000 -0.004925 0.750000
vertex 0.125000 -0.004740 0.750000
endloop
endfacet
facet normal -0.000005 0.000000 1.000000
outer loop
vertex 0.130000 0.021054 0.750000
vertex 0.125000 -0.004740 0.750000
vertex 0.130000 -0.004556 0.750000
endloop
endfacet
facet normal 0.000000 0.000000 1.000000
outer loop
vertex 0.130000 0.021054 0.750000
vertex 0.125000 0.021469 0.750000
vertex 0.125000 -0.004740 0.750000
endloop
endfacet
facet normal -0.000015 0.000000 1.000000
outer loop
vertex 0.135000 0.020593 0.750000
vertex 0.130000 -0.004556 0.750000
vertex 0.135000 -0.004373 0.750000
endloop
endfacet
facet normal 0.000000 0.000000 1.000000
outer loop
vertex 0.135000 0.020593 0.750000
vertex 0.130000 0.021054 0.750000
vertex 0.130000 -0.004556 0.750000
endloop
endfacet
facet normal 0.000000 0.000000 1.000000
outer loop
vertex 0.140000 0.020087 0.750000
vertex 0.135000 0.020593 0.750000
vertex 0.135000 -0.004373 0.750000
endloop
endfacet
facet normal 0.000000 0.000000 1.000000
outer loop
vertex 0.145000 0.019536 0.750000
vertex 0.140000 0.020087 0.750000
vertex 0.135000 -0.004373 0.750000
endloop
endfacet
facet normal -0.000002 0.000000 1.000000
outer loop
vertex 0.150000 0.018941 0.750000
vertex 0.135000 -0.004373 0.750000
vertex 0.160000 -0.003455 0.750000
endloop
endfacet
facet normal 0.000000 0.000000 1.000000
outer loop
vertex 0.150000 0.018941 0.750000
vertex 0.145000 0.019536 0.750000
vertex 0.135000 -0.004373 0.750000
endloop
endfacet
facet normal 0.000035 0.000000 1.000000
outer loop
vertex 0.155000 0.018302 0.750000
vertex 0.150000 0.018941 0.750000
vertex 0.160000 -0.003455 0.750000
endloop
endfacet
facet normal -0.000035 0.000000 1.000000
outer loop
vertex 0.160000 0.017621 0.750000
vertex 0.155000 0.018302 0.750000
vertex 0.160000 -0.003455 0.750000
endloop
endfacet
facet normal -0.000002 0.000000 1.000000
outer loop
vertex 0.165000 0.016901 0.750000
vertex 0.160000 -0.003455 0.750000
vertex 0.170000 -0.003088 0.750000
endloop
endfacet
facet normal 0.000000 0.000000 1.000000
outer loop
vertex 0.165000 0.016901 0.750000
vertex 0.160000 0.017621 0.750000
vertex 0.160000 -0.003455 0.750000
endloop
endfacet
facet normal 0.000000 0.000000 1.000000
outer loop
vertex 0.170000 0.016146 0.750000
vertex 0.165000 0.016901 0.750000
vertex 0.170000 -0.003088 0.750000
endloop
endfacet
facet normal 0.000008 0.000000 1.000000
outer loop
vertex 0.175000 0.015358 0.750000
vertex 0.170000 -0.003088 0.750000
vertex 0.175000 -0.002904 0.750000
endloop
endfacet
facet normal -0.000019 0.000000 1.000000
outer loop
vertex 0.175000 0.015358 0.750000
vertex 0.170000 0.016146 0.750000
vertex 0.170000 -0.003088 0.750000
endloop
endfacet
facet normal 0.000000 0.000000 1.000000
outer loop
vertex 0.180000 0.014540 0.750000
vertex 0.175000 -0.002904 0.750000
vertex 0.180000 -0.002721 0.750000
endloop
endfacet
facet normal 0.000020 0.000000 1.000000
outer loop
vertex 0.180000 0.014540 0.750000
vertex 0.175000 0.015358 0.750000
vertex 0.175000 -0.002904 0.750000
endloop
endfacet
facet normal 0.000004 0.000000 1.000000
outer loop
vertex 0.185000 0.013692 0.750000
vertex 0.180000 -0.002721 0.750000
vertex 0.185000 -0.002537 0.750000
endloop
endfacet
facet normal -0.000022 0.000000 1.000000
outer loop
vertex 0.185000 0.013692 0.750000
vertex 0.180000 0.014540 0.750000
vertex 0.180000 -0.002721 0.750000
endloop
endfacet
facet normal 0.000000 0.000000 1.000000
outer loop
vertex 0.190000 0.012814 0.750000
vertex 0.185000 -0.002537 0.750000
vertex 0.190000 -0.002353 0.750000
endloop
endfacet
facet normal 0.000000 0.000000 1.000000
outer loop
vertex 0.190000 0.012814 0.750000
vertex 0.185000 0.013692 0.750000
vertex 0.185000 -0.002537 0.750000
endloop
endfacet
facet normal 0.000005 0.000000 1.000000
outer loop
vertex 0.195000 0.011907 0.750000
vertex 0.190000 -0.002353 0.750000
vertex 0.195000 -0.002170 0.750000
endloop
endfacet
facet normal 0.000000 0.000000 1.000000
outer loop
vertex 0.195000 0.011907 0.750000
vertex 0.190000 0.012814 0.750000
vertex 0.190000 -0.002353 0.750000
endloop
endfacet
facet normal 0.000000 0.000000 1.000000
outer loop
vertex 0.200000 0.010971 0.750000
vertex 0.195000 -0.002170 0.750000
vertex 0.200000 -0.001986 0.750000
endloop
endfacet
facet normal 0.000000 0.000000 1.000000
outer loop
vertex 0.200000 0.010971 0.750000
vertex 0.195000 0.011907 0.750000
vertex 0.195000 -0.002170 0.750000
endloop
endfacet
facet normal -0.000023 0.000000 1.000000
outer loop
vertex 0.205000 0.010006 0.750000
vertex 0.200000 -0.001986 0.750000
vertex 0.205000 -0.001802 0.750000
endloop
endfacet
facet normal 0.000000 0.000000 1.000000
outer loop
vertex 0.205000 0.010006 0.750000
vertex 0.200000 0.010971 0.750000
vertex 0.200000 -0.001986 0.750000
endloop
endfacet
facet normal 0.000000 0.000000 1.000000
outer loop
vertex 0.210000 0.009014 0.750000
vertex 0.205000 0.010006 0.750000
vertex 0.205000 -0.001802 0.750000
endloop
endfacet
facet normal 0.000000 0.000000 1.000000
outer loop
vertex 0.210000 0.009014 0.750000
vertex 0.205000 -0.001802 0.750000
vertex 0.210000 -0.001619 0.750000
endloop
endfacet
facet normal 0.000000 0.000000 1.000000
outer loop
vertex 0.215000 0.007993 0.750000
vertex 0.210000 0.009014 0.750000
vertex 0.210000 -0.001619 0.750000
endloop
endfacet
facet normal 0.000011 0.000000 1.000000
outer loop
vertex 0.215000 0.007993 0.750000
vertex 0.210000 -0.001619 0.750000
vertex 0.215000 -0.001435 0.750000
endloop
endfacet
facet normal -0.000020 0.000000 1.000000
outer loop
vertex 0.220000 0.006947 0.750000
vertex 0.215000 0.007993 0.750000
vertex 0.215000 -0.001435 0.750000
endloop
endfacet
facet normal -0.000004 0.000000 1.000000
outer loop
vertex 0.220000 0.006947 0.750000
vertex 0.215000 -0.001435 0.750000
vertex 0.220000 -0.001251 0.750000
endloop
endfacet
facet normal 0.000000 0.000000 1.000000
outer loop
vertex 0.225000 0.005875 0.750000
vertex 0.220000 0.006947 0.750000
vertex 0.220000 -0.001251 0.750000
endloop
endfacet
facet normal 0.000015 0.000000 1.000000
outer loop
vertex 0.225000 0.005875 0.750000
vertex 0.220000 -0.001251 0.750000
vertex 0.225000 -0.001068 0.750000
endloop
endfacet
facet normal 0.000000 0.000000 1.000000
outer loop
vertex 0.230000 0.004779 0.750000
vertex 0.225000 0.005875 0.750000
vertex 0.225000 -0.001068 0.750000
endloop
endfacet
facet normal -0.000003 0.000000 1.000000
outer loop
vertex 0.230000 0.004779 0.750000
vertex 0.225000 -0.001068 0.750000
vertex 0.230000 -0.000884 0.750000
endloop
endfacet
facet normal 0.000000 0.000000 1.000000
outer loop
vertex 0.235000 0.003656 0.750000
vertex 0.230000 0.004779 0.750000
vertex 0.230000 -0.000884 0.750000
endloop
endfacet
facet normal -0.000019 0.000000 1.000000
outer loop
vertex 0.235000 0.003656 0.750000
vertex 0.230000 -0.000884 0.750000
vertex 0.235000 -0.000701 0.750000
endloop
endfacet
facet normal 0.000000 0.000000 1.000000
outer loop
vertex 0.240000 0.002506 0.750000
vertex 0.235000 0.003656 0.750000
vertex 0.235000 -0.000701 0.750000
endloop
endfacet
facet normal -0.000006 0.000000 1.000000
outer loop
vertex 0.240000 0.002506 0.750000
vertex 0.235000 -0.000701 0.750000
vertex 0.240000 -0.000517 0.750000
endloop
endfacet
facet normal 0.000000 0.000000 1.000000
outer loop
vertex 0.242500 0.001922 0.750000
vertex 0.240000 0.002506 0.750000
vertex 0.240000 -0.000517 0.750000
endloop
endfacet
facet normal 0.000031 0.000000 1.000000
outer loop
vertex 0.245000 0.001333 0.750000
vertex 0.242500 0.001922 0.750000
vertex 0.240000 -0.000517 0.750000
endloop
endfacet
facet normal 0.000000 0.000000 1.000000
outer loop
vertex 0.247500 -0.000242 0.750000
vertex 0.245000 0.001333 0.750000
vertex 0.240000 -0.000517 0.750000
endloop
endfacet
facet normal 0.000000 0.000000 1.000000
outer loop
vertex 0.247500 0.000742 0.750000
vertex 0.245000 0.001333 0.750000
vertex 0.247500 -0.000242 0.750000
endloop
endfacet
facet normal 0.000047 0.000000 1.000000
outer loop
vertex 0.250000 0.000150 0.750000
vertex 0.247500 0.000742 0.750000
vertex 0.247500 -0.000242 0.750000
endloop
endfacet
facet normal -0.000039 0.000000 1.000000
outer loop
vertex 0.250000 0.000150 0.750000
vertex 0.247500 -0.000242 0.750000
vertex 0.250000 -0.000150 0.750000
endloop
endfacet
facet normal 0.036675 -0.999327 0.000000
outer loop
vertex 0.240000 -0.000517 -0.750000
vertex 0.247500 -0.000242 -0.750000
vertex 0.247500 -0.000242 0.750000
endloop
endfacet
facet normal 0.036675 -0.999327 0.000000
outer loop
vertex 0.240000 -0.000517 -0.750000
vertex 0.247500 -0.000242 0.750000
vertex 0.240000 -0.000517 0.750000
endloop
endfacet
facet normal 0.036725 -0.999325 0.000000
outer loop
vertex 0.160000 -0.003455 -0.750000
vertex 0.170000 -0.003088 -0.750000
vertex 0.170000 -0.003088 0.750000
endloop
endfacet
facet normal 0.036725 -0.999325 0.000000
outer loop
vertex 0.160000 -0.003455 -0.750000
vertex 0.170000 -0.003088 0.750000
vertex 0.160000 -0.003455 0.750000
endloop
endfacet
facet normal 0.036675 -0.999327 0.000000
outer loop
vertex 0.135000 -0.004373 -0.750000
vertex 0.160000 -0.003455 -0.750000
vertex 0.160000 -0.003455 0.750000
endloop
endfacet
facet normal 0.036675 -0.999327 0.000000
outer loop
vertex 0.135000 -0.004373 -0.750000
vertex 0.160000 -0.003455 0.750000
vertex 0.135000 -0.004373 0.750000
endloop
endfacet
facet normal 0.036775 -0.999324 0.000000
outer loop
vertex 0.110000 -0.005293 -0.750000
vertex 0.120000 -0.004925 -0.750000
vertex 0.120000 -0.004925 0.750000
endloop
endfacet
facet normal 0.036775 -0.999324 0.000000
outer loop
vertex 0.110000 -0.005293 -0.750000
vertex 0.120000 -0.004925 0.750000
vertex 0.110000 -0.005293 0.750000
endloop
endfacet
endsolid wall1
